<svg xmlns="http://www.w3.org/2000/svg" viewBox="0 0 47.063 53.643">
  <path id="Icon_awesome-discord" data-name="Icon awesome-discord" d="M31.223,25.48A2.752,2.752,0,1,1,28.48,22.5,2.861,2.861,0,0,1,31.223,25.48ZM18.664,22.5a2.987,2.987,0,0,0,0,5.954,2.987,2.987,0,0,0,0-5.954Zm28.4-16.978V53.643c-6.775-5.971-4.608-3.995-12.478-11.292l1.425,4.962H5.513A5.519,5.519,0,0,1,0,41.788V5.525A5.519,5.519,0,0,1,5.513,0H41.55A5.519,5.519,0,0,1,47.063,5.525ZM39.4,30.952a35.845,35.845,0,0,0-3.873-15.637A13.323,13.323,0,0,0,27.969,12.5l-.377.429a17.912,17.912,0,0,1,6.7,3.406A22.905,22.905,0,0,0,14.2,15.556c-1,.456-1.587.778-1.587.778a18.158,18.158,0,0,1,7.073-3.514l-.269-.322a13.323,13.323,0,0,0-7.557,2.816A35.845,35.845,0,0,0,7.987,30.952s2.259,3.889,8.2,4.077c0,0,1-1.207,1.8-2.226a8.362,8.362,0,0,1-4.706-3.165c.4.276,1.048.634,1.1.671a19.65,19.65,0,0,0,16.781.939,15.4,15.4,0,0,0,3.093-1.582,8.485,8.485,0,0,1-4.868,3.192c.807,1.019,1.775,2.173,1.775,2.173C37.113,34.841,39.4,30.952,39.4,30.952Z" />
</svg>
