<svg xmlns="http://www.w3.org/2000/svg" viewBox="0 0 52.725 42.822">
  <path id="Icon_awesome-twitter" data-name="Icon awesome-twitter" d="M47.305,14.053c.033.468.033.937.033,1.405,0,14.285-10.873,30.745-30.745,30.745A30.537,30.537,0,0,1,0,41.352a22.354,22.354,0,0,0,2.609.134,21.641,21.641,0,0,0,13.415-4.617,10.825,10.825,0,0,1-10.1-7.494,13.627,13.627,0,0,0,2.041.167,11.429,11.429,0,0,0,2.844-.368A10.807,10.807,0,0,1,2.141,18.569v-.134a10.883,10.883,0,0,0,4.884,1.372A10.822,10.822,0,0,1,3.68,5.355,30.716,30.716,0,0,0,25.961,16.662a12.2,12.2,0,0,1-.268-2.476,10.816,10.816,0,0,1,18.7-7.394,21.275,21.275,0,0,0,6.858-2.609A10.777,10.777,0,0,1,46.5,10.139a21.663,21.663,0,0,0,6.223-1.673,23.229,23.229,0,0,1-5.42,5.587Z" transform="translate(0 -3.381)" />
</svg>
