<svg xmlns="http://www.w3.org/2000/svg" viewBox="0 0 55.74 52.643">
  <path id="opensea" d="M18.981,20.039,12.8,17.192c-.11-.109-.331,0-.441.219l-6.4,16.316c-.11.219.11.438.331.438H18.871a.292.292,0,0,0,.331-.329V20.258A.236.236,0,0,0,18.981,20.039ZM55.509,36.574a.838.838,0,0,0-.883-.109l-.772.328A27.339,27.339,0,0,1,41.715,39.53c-.221,0-.331.109-.331.219a4.253,4.253,0,0,1-4.193,3.395H28.582V36.026h.11c.552.11.993.11,1.545.219a10.4,10.4,0,0,1,6.18,2.957l.11.109a.338.338,0,0,0,.442,0,1.518,1.518,0,0,1,.441-.328c1.324-.876,4.414-2.738,4.414-12.593,0-10.074-7.725-16.863-8.608-17.3L28.692,8.76h-.11V5.913a3.219,3.219,0,0,0,1.545-2.738,3.091,3.091,0,1,0-6.18,0A2.945,2.945,0,0,0,25.492,5.8V8.213l-6.511-.657c-.331,0-.552.328-.331.547a31.093,31.093,0,0,1,4.3,15.44c.221,7.665-.993,11.279-1.545,12.593a.2.2,0,0,0,0,.329.408.408,0,0,0,.331.109c.772-.109,2.1-.329,3.752-.438v7.118H18.319a4.366,4.366,0,0,1-4.3-4.271V37.231a.292.292,0,0,0-.331-.329H.331A.351.351,0,0,0,0,37.231v.985A25.219,25.219,0,0,0,3.862,51.575a1.5,1.5,0,0,0,1.876.657l1.435-.657a4.241,4.241,0,0,1,3.642,0l1.545.657a4.241,4.241,0,0,0,3.642,0l1.545-.657a4.243,4.243,0,0,1,3.642,0l1.545.657a4.243,4.243,0,0,0,3.642,0l1.545-.657a4.242,4.242,0,0,1,3.642,0l1.545.657a4.242,4.242,0,0,0,3.642,0l1.545-.657a4.242,4.242,0,0,1,3.642,0l1.545.657a2.122,2.122,0,0,0,2.649-1.095,25.164,25.164,0,0,0,2.207-4.6c1.214-3.613,3.421-7.008,6.842-8.651a.732.732,0,0,0,.442-.766C55.84,37.012,55.73,36.683,55.509,36.574Z" fill="#f6f6f6"/>
</svg>
