<svg xmlns="http://www.w3.org/2000/svg" viewBox="0 0 1420.56 1088.76"><g style="isolation:isolate"><g id="Layer_1" data-name="Layer 1"><path d="M507.82,1387.65a265.84,265.84,0,0,0,12.79,47.72c0,.14.1.28.16.42.67,1.82,1.37,3.64,2.08,5.44l.66,1.66c.76,1.88,1.53,3.74,2.32,5.6l.6,1.41c.6,1.37,1.2,2.74,1.81,4.1.33.74.66,1.48,1,2.22.57,1.23,1.15,2.45,1.72,3.68.06.12.12.24.17.36.26.53.52,1.07.77,1.61.17.36.36.72.54,1.09q1,2.16,2.14,4.31.55,1.13,1.14,2.22c.57,1.11,1.14,2.21,1.72,3.31.41.77.82,1.55,1.24,2.31.57,1.06,1.15,2.11,1.73,3.16s1.21,2.18,1.82,3.26c.82,1.44,1.64,2.87,2.48,4.29.4.68.8,1.36,1.21,2q1.11,1.88,2.25,3.75c.35.55.69,1.11,1,1.67q3.46,5.6,7.13,11.08l1.08,1.59c.88,1.31,1.78,2.62,2.68,3.92l1.28,1.84c1,1.41,2,2.82,3,4.21a.86.86,0,0,0,.07.1c1.38,1.92,2.79,3.83,4.2,5.73l.47.62q1.89,2.52,3.81,5l1,1.23c1.24,1.58,2.48,3.17,3.73,4.74.14.16.27.32.4.49,1.47,1.83,3,3.66,4.45,5.47l1.16,1.4,2,2.38,1.61,1.89c2,2.39,4.09,4.74,6.17,7.08.46.52.92,1,1.39,1.57,2.1,2.35,4.22,4.69,6.36,7,.21.24.42.47.64.7,1,1,2,2.09,3,3.13.56.6,1.12,1.2,1.68,1.78s1.21,1.26,1.82,1.89c.91,1,1.84,1.91,2.76,2.86l1.36,1.39q1.59,1.62,3.2,3.23l.59.59c1.51,1.5,3,3,4.54,4.48l.23.23c2.63,2.57,5.3,5.1,8,7.62l1.75,1.66c.49.46,1,.9,1.49,1.36q8.57,8,17.43,15.57c2,1.76,4.1,3.51,6.16,5.24l1.74,1.47c2.22,1.85,4.47,3.67,6.71,5.49l2.74,2.22c.48.38,1,.77,1.45,1.14,1.62,1.3,3.27,2.58,4.91,3.86,1.08.85,2.16,1.7,3.25,2.54,2,1.57,4.09,3.11,6.15,4.66,1.2.9,2.4,1.81,3.61,2.7,2,1.47,4,2.93,6,4.38l3.92,2.81q2.92,2.09,5.88,4.12,2.1,1.47,4.21,2.91,2.87,2,5.75,3.88l4.48,3q2.82,1.85,5.65,3.66l4.75,3c1.84,1.15,3.67,2.3,5.52,3.43,1.67,1,3.35,2,5,3l5.38,3.22,5.33,3.08c1.74,1,3.48,2,5.23,3s3.77,2.09,5.66,3.13c1.67.92,3.34,1.85,5,2.76,2,1.1,4.08,2.16,6.13,3.24,1.56.82,3.11,1.65,4.68,2.46,2.47,1.27,5,2.51,7.43,3.75l3.39,1.7c1.89.93,3.79,1.84,5.7,2.75l.56.26c3.92,1.85,7.9,3.65,11.93,5.37l.13.06q3.12,1.32,6.28,2.6,2.34.93,4.71,1.83l1.59.61q6.14,2.31,12.41,4.3l2.3.7,3.4,1a188.32,188.32,0,0,0,27.09,5.74,163,163,0,0,1,53.78,5.5l.11,0,1.93.53.76.23.52.15,1.71.52,1.1.34c1.12.35,2.23.72,3.32,1.1l.35.11c4.09,1.42,8.13,3,12.08,4.65h0l.47.21q2.64,1.14,5.23,2.37l.09,0c1.29.62,2.57,1.27,3.84,1.94.72.37,1.45.75,2.17,1.15l1,.57c.4.22.8.44,1.19.67l.11.07.41.23,1.59.94.48.3.81.5c.29.18.59.35.88.54s.51.33.76.5l1,.67.54.35.33.22.78.54.94.65.25.18,1.26.91c.29.21.58.42.86.64a.71.71,0,0,1,.14.1l.44.34c1.54,1.17,3,2.38,4.52,3.65l.11.09,1.17,1,.9.79.08.09,0,0a1.88,1.88,0,0,1,.18.24l0,0a.2.2,0,0,1,0,.08,1.33,1.33,0,0,1,.16.5v0a1.35,1.35,0,0,1,0,.45v0a1.81,1.81,0,0,1-.92,1.11,1.93,1.93,0,0,1-.46.16h0a1.4,1.4,0,0,1-.5,0h0a1.7,1.7,0,0,1-.51-.17h-.05a1.92,1.92,0,0,1-.53-.17,169.72,169.72,0,0,0-24.06-10.42c-.83-.29-1.67-.57-2.52-.85-1.19-.39-2.4-.76-3.6-1.12-1-.3-2-.59-2.93-.87l-2.49-.69-3.47-.91-2.82-.69-1.83-.43c-1.55-.34-3.11-.67-4.66-1l-1.77-.34c-1.2-.23-2.4-.45-3.61-.66l-1.54-.26q-2.64-.43-5.29-.81l-.73-.09c-1.63-.22-3.26-.43-4.89-.61l-1.64-.17c-1.59-.16-3.17-.32-4.77-.46l-1.48-.11-1.09-.09-1.44-.1c-.93-.07-1.86-.13-2.8-.18l-.77,0-3.09-.15-.5,0c-1.1-.05-2.2-.09-3.3-.11H880c-1.12,0-2.23,0-3.35,0h-.2c-1.09,0-2.17,0-3.26,0h-.5c-1,0-2.08.06-3.13.11l-.57,0c-1,.06-2.09.12-3.13.2l-.75.06-1.37.12-.73.08-1.45.15-.68.08-1.48.2-.66.09-1.52.23-.6.1-1.61.28-.5.09-1.83.37-.27.06c-1.42.31-2.82.65-4.22,1l-.44.13-1.6.46-.68.21-1.34.43-.78.27-1.24.43-.81.31-1.19.46-.83.34-1.18.5-.81.35-1.21.56-.75.36-1.34.68-.61.31c-.64.34-1.29.69-1.93,1.06l-.55.32c-7.1,4.13-13.82,9.56-17.9,16.78a18.25,18.25,0,0,0-.84,1.73l0,0c-.07.15-.14.32-.2.47a2,2,0,0,0-.11.32.42.42,0,0,0,0,.1c-.08.24-.17.47-.23.71h0l-.06.24a.31.31,0,0,0,0,.13c-.06.21-.11.43-.15.64a.59.59,0,0,0,0,.21,9.74,9.74,0,0,0-.14,1.3c0,.16,0,.32,0,.49s0,.57,0,.86l0,.48a9.51,9.51,0,0,0,.23,1.16c0,.17.09.34.14.51s.17.51.27.77a5.21,5.21,0,0,0,.2.5,10.87,10.87,0,0,0,.54,1.08c.09.18.2.35.31.53s.35.55.54.82.22.33.35.49c.26.36.55.71.86,1.07l.39.44c.35.38.71.76,1.1,1.15,0,0,0,0,0,.06l0,0,.25.22c.23.22.46.44.7.65l.72.6a.13.13,0,0,0,.06,0c.3.24.6.45.91.68s.55.41.84.6l.62.41.63.38.62.38h0l1.4.75.52.26c.55.27,1.12.52,1.69.76s.85.37,1.28.53l.34.13c5.75,2.14,12.07,3.18,17.79,4.08,11.59,1.82,23.45,2.11,35.16,2.24,32.06.37,64.08-1,96.12-1.69,33.34-.72,66.56-.58,99.76,1,13.11-.18,26.22-.18,39.33-.18q47.88,0,95.75-.16,17.5,0,35,0h34.78l22.3,0h5.69q14.57,0,29.11.08h2.35q13.38,0,26.76.11c24.35.12,48.7.28,73,.67,6.93.11,13.88.16,20.82.28,4.36.08,8.72.18,13.08.35l2.26.08c.23,0,.47,0,.7,0l3.62.14c-.75-.69-1.45-1.41-2.12-2.16-.12-.13-.23-.27-.34-.4a21.75,21.75,0,0,1-5.56-14.33,24.88,24.88,0,0,1,.23-3.6c1.2-8.43,8.68-15.3,15.09-20.08a105.69,105.69,0,0,1,10.29-6.78,82.09,82.09,0,0,1,15.21-6.94l.31-.11a112.54,112.54,0,0,1,3-35.47,117,117,0,0,1,41.19-63.76,125.29,125.29,0,0,1,52.09-24.49,118.56,118.56,0,0,1,16-2.19c2.77-.19,5.56-.29,8.34-.28h.25c1.49,0,3,0,4.48.1,10,.43,19.79,4.06,28.81,7.93.69.3.31,1.38-.37,1.37a167.86,167.86,0,0,0-27,1.56c-4,.58-8,1-12,1.57a125,125,0,0,0-14.94,2.71,120.65,120.65,0,0,0-46,23.06c-25.67,21-40,52-38.38,84.9a75.9,75.9,0,0,1,30.22,4.4,109.6,109.6,0,0,1,24,12c4.35,2.86.29,9.9-4.1,7a65,65,0,0,0-26.1-9.75,73.52,73.52,0,0,0-37.32,4,65.17,65.17,0,0,0-6.42,2.9c-5.31,2.77-11.36,6-16,10.38a25.37,25.37,0,0,0-5.76,7.58c-.5,1.06-.34,1.94.26,3.68-.44-1.4,1.58,2.1.93,1.45a22.11,22.11,0,0,0,1.76,1.86c.54.51,1.09,1,1.66,1.47,4.13,3.42,12.13,6.16,18.7,7.79a87,87,0,0,0,19.47,2.32c2.28.06,4.57.07,6.91.06,25.18-.1,50.69,1.36,75.67-2.58a184.17,184.17,0,0,0,21.57-4.76c19.24-5.42,37.56-13.7,55.1-23.45,8.2-4.57,16.31-9.41,24.31-14.45,1.63-1,3.25-2.06,4.87-3.1l2-1.31q3.73-2.43,7.42-4.91c1-.66,2-1.32,3-2l3.72-2.55,4.37-3,3-2.12c2.08-1.49,4.16-3,6.22-4.49l2.1-1.55c2.37-1.75,4.74-3.5,7.08-5.28a333.25,333.25,0,0,0,88.41-102q6-10.68,11.2-21.7a363.66,363.66,0,0,0,24-67.73l.66-2.69c.21-.9.43-1.79.64-2.69s.41-1.8.62-2.7q1.85-8.09,3.33-16.26c.33-1.82.66-3.64,1-5.46.47-2.73.9-5.46,1.31-8.2q.4-2.74.78-5.49,1.11-8.1,1.9-16.25c.28-2.85.53-5.71.75-8.56.08-.92.15-1.85.21-2.77.12-1.62.23-3.25.33-4.88q.39-6.56.61-13.13c0-.88.06-1.75.08-2.63a485.21,485.21,0,0,0-1.29-50.17q-1-12.6-2.55-25.09a489.61,489.61,0,0,0-12.28-63.61q-.76-2.79-1.57-5.57c-.82-2.81-1.66-5.6-2.53-8.39-.1-.34-.21-.68-.32-1-.86-2.75-1.74-5.5-2.65-8.23l-.06-.17c-1-2.86-1.94-5.71-3-8.55l-.12-.34c-1-2.83-2.06-5.65-3.13-8.46l-.48-1.23q-1.17-3-2.4-6c-.39-1-.79-1.91-1.19-2.87q-.91-2.17-1.85-4.34c-.49-1.12-1-2.23-1.46-3.34-.61-1.35-1.23-2.71-1.86-4.06-.48-1.06-1-2.12-1.46-3.18-.94-2-1.9-4-2.88-5.92-.4-.81-.8-1.62-1.21-2.43-1-1.9-1.93-3.79-2.93-5.68-.46-.87-.92-1.75-1.39-2.62-.92-1.7-1.84-3.4-2.79-5.09-.56-1-1.14-2-1.72-3q-1.1-1.93-2.22-3.85c-.77-1.32-1.56-2.64-2.35-3.95s-1.51-2.49-2.27-3.73c-.63-1-1.27-2.05-1.91-3.06-1-1.59-2-3.16-3-4.73-.7-1.07-1.4-2.13-2.11-3.19s-1.52-2.27-2.3-3.4q-1.48-2.17-3-4.33l-2-2.78c-1.11-1.55-2.22-3.08-3.35-4.61l-2.18-2.91-2.25-3-.1-.12q-7.74-10-16.11-19.55c-.65-.74-1.31-1.46-2-2.19-1.23-1.38-2.46-2.77-3.72-4.13l-.21-.23q-3-3.23-6-6.38c-.68-.71-1.38-1.4-2.07-2.1-1.45-1.48-2.9-3-4.38-4.42l-2.25-2.19q-2.17-2.11-4.39-4.22l-2.19-2c-1.54-1.43-3.08-2.85-4.64-4.26l-2-1.83q-2.46-2.19-5-4.35l-1.87-1.6q-2.64-2.25-5.32-4.46c-.56-.46-1.11-.92-1.68-1.37q-2.8-2.29-5.65-4.54l-1.52-1.19q-2.92-2.29-5.9-4.53l-1.29-1a495.28,495.28,0,0,0-80.54-47.61,483.7,483.7,0,0,0-70.82-27.45c-8-2.35-16.09-4.52-24.23-6.41q-7.68-1-15.39-1.65l-1.3-.11c-1.51-.13-3-.25-4.55-.35-1.8-.13-3.6-.24-5.4-.34-.93-.06-1.86-.1-2.79-.14l-4.32-.19-2.25-.08c-2.22-.07-4.44-.13-6.66-.16h-.53q-3.92-.06-7.81,0l-3,0q-3,0-6,.09l-2.35.06-4.18.14c-2.74.1-5.49.22-8.23.36-1.45.07-2.89.13-4.34.22l-3.24.2q-2.82.16-5.64.37-5.65.39-11.31.87l-1.63.15q-6.48.56-13,1.19l-1.16.12-3.61.36-2.69.28q-8.91.92-17.83,1.9l-2,.22-8.72,1-4.46.49-1.75.19-.34,0-6.13.66-.9.1-7.83.82-.68.07-5.7.56-1.47.15-1.37.13-1.5.15-.19,0-2.73.25-5.65.51-.55.05c-3.2.28-6.41.53-9.61.76l-2.52.16c-2.4.17-4.79.33-7.19.46h-.2q-4.63.25-9.29.45h-.28l-1.56.05-3.47.11c-1.38,0-2.77.09-4.16.12H1327c-1.37,0-2.75,0-4.12,0H1322l-3.76.05h-1.51c-2.6,0-5.19,0-7.79,0h-.23c-1.2,0-2.39-.07-3.58-.09l-.65,0c-2.21,0-4.41-.11-6.61-.2-1.3,0-2.6-.11-3.89-.17s-2.64-.11-4-.19l-.89-.05H1289c-2.46-.14-4.92-.3-7.38-.46l-1.27-.09-2.57-.18c-1.43-.1-2.87-.2-4.3-.32l-2.27-.18-4.67-.38q-4-.34-8-.72l-.58-.05-1.26-.12-.51,0c-.68-.07-1.37-.13-2-.21-2.09-.2-4.18-.42-6.27-.64l-.56-.06-2.51-.27-.17,0L1243,1010c-2-.22-4.11-.46-6.16-.7h0l-5.71-.7-3.16-.39-6.15-.79-.43-.06c-1.67-.21-3.34-.45-5-.67l-.18,0-5-.7-.18,0-6.06-.87-1.79-.26-.74-.11-1.17-.18c-1.63-.24-3.26-.48-4.89-.74l-1.77-.28q-6.15-1-12.28-2l-1.1-.18-5.17-.89-.25,0c-2.45-.42-4.89-.86-7.34-1.31l-2.74-.49c-5.79-.44-11.47-1.18-17.26-2.1-9.22-1.48-18.36-3.32-27.48-5.3l-3.75-.81h0l-.49-.08q-5.57-1.1-11.08-2.48l-2-.52c-1.19-.3-2.38-.62-3.56-.95-5.91-1.31-11.77-2.83-17.56-4.51q-9.11-2.64-18-6l-.34-.12-.6-.19-4.73-1.56-5.6-1.87-1.81-.62-3.46-1.19-5.88-2-1.3-.46-5.47-1.88-1.72-.58-3.75-1.24-2.62-.85-1-.32c-1.09-.34-2.17-.67-3.26-1l-1.45-.43c-1.25-.37-2.51-.73-3.76-1.07-1.83-.5-3.67-1-5.51-1.43a298.07,298.07,0,0,0-34.67-6.37,396.28,396.28,0,0,0-45.29-3c-13.35-.14-26.71.31-40,1.21q-15.95,1.1-31.83,3.21-10,1.33-19.91,3.12a388.57,388.57,0,0,0-59.81,15.57l-2.18.8c-1.69.61-3.39,1.21-5.07,1.85l-3,1.18c-1.42.56-2.85,1.11-4.26,1.69-1.05.43-2.09.88-3.13,1.32-1.35.58-2.71,1.15-4.05,1.74-1,.46-2.1.94-3.15,1.42-1.32.6-2.64,1.19-3.94,1.81l-3.15,1.51-3.86,1.9c-1,.52-2.08,1-3.12,1.59-1.27.66-2.54,1.32-3.81,2-1,.54-2,1.1-3.07,1.65-1.26.7-2.52,1.4-3.77,2.11-1,.56-2,1.13-3,1.71l-1.69,1-2.08,1.24-2.91,1.75c-1.27.78-2.54,1.58-3.81,2.38l-2.77,1.76q-2,1.29-3.94,2.61c-.85.56-1.7,1.11-2.53,1.68q-2.25,1.54-4.48,3.12l-1.9,1.33c-2.09,1.5-4.17,3-6.23,4.57l-1.65,1.28c-1.51,1.15-3,2.3-4.5,3.47-.81.63-1.6,1.29-2.4,1.93-1.22,1-2.44,2-3.65,3-.87.72-1.73,1.45-2.59,2.18l-3,2.56c-3.39,3.13-14.76,15-16.84,17.6-22.3,28.35-45.32,56.13-66.9,85-7.06,9.46-14,19.1-20.74,28.92,0,0-8.41,12.54-10.83,16.35-18.36,28.63-34.33,58.86-45.18,91A238.51,238.51,0,0,0,507.82,1387.65Z" transform="translate(-488.69 -720.9)" style="fill:#fff"/><path d="M772.14,1716.86c11,.25,21.79,2.72,32.4,5.42a239.9,239.9,0,0,0,29.31,5.79c-13.17,5.21-25.54,14.12-32.87,25.5-4.6,7.15-7.4,16.69-4.28,25,.29.76.61,1.5.94,2.22-16.18-.75-32.43-.93-48.47-3.41-14.65-2.27-39.3-8.3-32.33-28,3.79-10.74,14.21-18.74,23.75-24.16A60.41,60.41,0,0,1,772.14,1716.86Z" transform="translate(-488.69 -720.9)" style="fill:#fff"/><path d="M839.27,1743.06l-1.18.5Z" transform="translate(-488.69 -720.9)" style="fill:none"/><path d="M845.46,1740.83l-1.34.43Z" transform="translate(-488.69 -720.9)" style="fill:none"/><path d="M819.66,1783.11c.41.28.83.54,1.25.79C820.49,1783.65,820.07,1783.39,819.66,1783.11Z" transform="translate(-488.69 -720.9)" style="fill:none"/><path d="M837.28,1743.92l-1.21.56Z" transform="translate(-488.69 -720.9)" style="fill:none"/><path d="M847.74,1740.15l-1.6.46Z" transform="translate(-488.69 -720.9)" style="fill:none"/><path d="M817.87,1781.8c.31.24.63.47,1,.7C818.5,1782.27,818.18,1782.05,817.87,1781.8Z" transform="translate(-488.69 -720.9)" style="fill:none"/><path d="M811.48,1767.59c-.08.3-.15.59-.21.89C811.33,1768.18,811.4,1767.89,811.48,1767.59Z" transform="translate(-488.69 -720.9)" style="fill:none"/><path d="M811.78,1766.64c-.08.24-.17.48-.24.71C811.61,1767.12,811.7,1766.88,811.78,1766.64Z" transform="translate(-488.69 -720.9)" style="fill:none"/><path d="M812.13,1765.74c-.07.16-.14.32-.2.48C812,1766.06,812.06,1765.9,812.13,1765.74Z" transform="translate(-488.69 -720.9)" style="fill:none"/><path d="M835.32,1744.84l-1.34.68Z" transform="translate(-488.69 -720.9)" style="fill:none"/><path d="M841.28,1742.27l-1.18.46Z" transform="translate(-488.69 -720.9)" style="fill:none"/><path d="M865.1,1737.15l-1.37.12Z" transform="translate(-488.69 -720.9)" style="fill:none"/><path d="M872.68,1736.76c-1,0-2.09.06-3.13.1C870.59,1736.82,871.64,1736.78,872.68,1736.76Z" transform="translate(-488.69 -720.9)" style="fill:none"/><path d="M852.4,1739c-1.42.31-2.82.65-4.22,1C849.58,1739.65,851,1739.31,852.4,1739Z" transform="translate(-488.69 -720.9)" style="fill:none"/><path d="M876.44,1736.72c-1.09,0-2.17,0-3.26,0C874.27,1736.73,875.35,1736.71,876.44,1736.72Z" transform="translate(-488.69 -720.9)" style="fill:none"/><path d="M880,1736.76c-1.12,0-2.24,0-3.35,0C877.75,1736.72,878.87,1736.74,880,1736.76Z" transform="translate(-488.69 -720.9)" style="fill:none"/><path d="M869,1736.89c-1.05,0-2.09.12-3.13.2C866.89,1737,867.93,1736.94,869,1736.89Z" transform="translate(-488.69 -720.9)" style="fill:none"/><path d="M856.61,1738.19l-1.61.29Z" transform="translate(-488.69 -720.9)" style="fill:none"/><path d="M854.49,1738.57l-1.82.37Z" transform="translate(-488.69 -720.9)" style="fill:none"/><path d="M858.73,1737.87l-1.52.23Z" transform="translate(-488.69 -720.9)" style="fill:none"/><path d="M860.87,1737.58l-1.49.19Z" transform="translate(-488.69 -720.9)" style="fill:none"/><path d="M863,1737.34l-1.45.16Z" transform="translate(-488.69 -720.9)" style="fill:none"/><path d="M1755.93,1103.92l-1.87-1.6Z" transform="translate(-488.69 -720.9)" style="fill:none"/><path d="M1782.86,1129.32c-.68-.7-1.38-1.39-2.07-2.09C1781.48,1127.93,1782.18,1128.62,1782.86,1129.32Z" transform="translate(-488.69 -720.9)" style="fill:none"/><path d="M1810.9,1161.81q-7.74-10-16.11-19.56Q1803.16,1151.76,1810.9,1161.81Z" transform="translate(-488.69 -720.9)" style="fill:none"/><path d="M1776.41,1122.81c-.74-.74-1.5-1.46-2.25-2.19C1774.91,1121.35,1775.67,1122.07,1776.41,1122.81Z" transform="translate(-488.69 -720.9)" style="fill:none"/><path d="M1813.25,1164.9c-.75-1-1.5-2-2.26-3C1811.75,1162.91,1812.5,1163.91,1813.25,1164.9Z" transform="translate(-488.69 -720.9)" style="fill:none"/><path d="M1818.78,1172.41q-1.66-2.31-3.35-4.6C1816.56,1169.34,1817.67,1170.87,1818.78,1172.41Z" transform="translate(-488.69 -720.9)" style="fill:none"/><path d="M1769.77,1116.4c-.72-.69-1.46-1.36-2.19-2.05Z" transform="translate(-488.69 -720.9)" style="fill:none"/><path d="M1741.41,1092l-1.52-1.2Z" transform="translate(-488.69 -720.9)" style="fill:none"/><path d="M1748.74,1097.86l-1.68-1.38Z" transform="translate(-488.69 -720.9)" style="fill:none"/><path d="M883.47,1736.87c-1.1,0-2.2-.08-3.3-.1C881.27,1736.79,882.37,1736.83,883.47,1736.87Z" transform="translate(-488.69 -720.9)" style="fill:none"/><path d="M1823.76,1179.53c-1-1.45-2-2.9-3-4.33C1821.77,1176.63,1822.77,1178.08,1823.76,1179.53Z" transform="translate(-488.69 -720.9)" style="fill:none"/><path d="M1762.94,1110.1l-2-1.83Z" transform="translate(-488.69 -720.9)" style="fill:none"/><path d="M1828.17,1186.12c-.7-1.07-1.4-2.13-2.11-3.19C1826.77,1184,1827.47,1185.05,1828.17,1186.12Z" transform="translate(-488.69 -720.9)" style="fill:none"/><path d="M1869.79,1272.62c-1-2.86-1.94-5.71-3-8.55C1867.85,1266.91,1868.83,1269.76,1869.79,1272.62Z" transform="translate(-488.69 -720.9)" style="fill:none"/><path d="M1857.66,1240.79c-.49-1.11-1-2.22-1.47-3.33C1856.69,1238.57,1857.17,1239.68,1857.66,1240.79Z" transform="translate(-488.69 -720.9)" style="fill:none"/><path d="M821.52,1784.27c.47.27.94.52,1.42.76C822.46,1784.79,822,1784.54,821.52,1784.27Z" transform="translate(-488.69 -720.9)" style="fill:none"/><path d="M824.11,1785.63c-.22-.1-.43-.22-.65-.33.55.27,1.12.51,1.69.76Z" transform="translate(-488.69 -720.9)" style="fill:none"/><path d="M826.43,1786.59l.34.13Z" transform="translate(-488.69 -720.9)" style="fill:none"/><path d="M1860.7,1248c-.39-1-.79-1.92-1.19-2.87C1859.91,1246.09,1860.31,1247.05,1860.7,1248Z" transform="translate(-488.69 -720.9)" style="fill:none"/><path d="M1837.74,1201.59q-1.17-2-2.35-4Q1836.58,1199.61,1837.74,1201.59Z" transform="translate(-488.69 -720.9)" style="fill:none"/><path d="M1850,1224.3c-.4-.81-.8-1.62-1.21-2.43C1849.2,1222.68,1849.6,1223.49,1850,1224.3Z" transform="translate(-488.69 -720.9)" style="fill:none"/><path d="M1833.12,1193.91c-.64-1-1.27-2.05-1.91-3.06C1831.85,1191.86,1832.48,1192.89,1833.12,1193.91Z" transform="translate(-488.69 -720.9)" style="fill:none"/><path d="M1841.68,1208.48c-.56-1-1.14-2-1.72-3C1840.54,1206.45,1841.12,1207.46,1841.68,1208.48Z" transform="translate(-488.69 -720.9)" style="fill:none"/><path d="M1845.86,1216.19c-.46-.88-.93-1.75-1.39-2.62C1844.93,1214.44,1845.4,1215.31,1845.86,1216.19Z" transform="translate(-488.69 -720.9)" style="fill:none"/><path d="M843.34,1741.52l-1.24.44Z" transform="translate(-488.69 -720.9)" style="fill:none"/><path d="M628.87,1588.51l1.75,1.66Z" transform="translate(-488.69 -720.9)" style="fill:none"/><path d="M632.11,1591.53q11.52,10.7,23.59,20.81Q643.64,1602.23,632.11,1591.53Z" transform="translate(-488.69 -720.9)" style="fill:none"/><path d="M612.33,1572.35c1.06,1.08,2.12,2.16,3.2,3.23C614.46,1574.51,613.39,1573.44,612.33,1572.35Z" transform="translate(-488.69 -720.9)" style="fill:none"/><path d="M616.12,1576.17c1.5,1.51,3,3,4.54,4.49Q618.38,1578.44,616.12,1576.17Z" transform="translate(-488.69 -720.9)" style="fill:none"/><path d="M657.44,1613.81c2.22,1.85,4.47,3.67,6.71,5.49C661.91,1617.48,659.66,1615.66,657.44,1613.81Z" transform="translate(-488.69 -720.9)" style="fill:none"/><path d="M676.49,1629.05c2,1.57,4.1,3.12,6.16,4.67C680.59,1632.17,678.53,1630.62,676.49,1629.05Z" transform="translate(-488.69 -720.9)" style="fill:none"/><path d="M666.88,1621.52c2.11,1.68,4.24,3.34,6.36,5C671.12,1624.86,669,1623.2,666.88,1621.52Z" transform="translate(-488.69 -720.9)" style="fill:none"/><path d="M706.28,1650.63q2.87,2,5.75,3.88Q709.15,1652.59,706.28,1650.63Z" transform="translate(-488.69 -720.9)" style="fill:none"/><path d="M696.19,1643.61q2.92,2.09,5.88,4.12Q699.12,1645.69,696.19,1643.61Z" transform="translate(-488.69 -720.9)" style="fill:none"/><path d="M583.6,1540.7l2,2.37C584.93,1542.29,584.26,1541.5,583.6,1540.7Z" transform="translate(-488.69 -720.9)" style="fill:none"/><path d="M686.26,1636.42c2,1.47,4,2.93,6,4.38C690.26,1639.35,688.25,1637.89,686.26,1636.42Z" transform="translate(-488.69 -720.9)" style="fill:none"/><path d="M887.06,1737.05l-3.1-.16Z" transform="translate(-488.69 -720.9)" style="fill:none"/><path d="M535.71,1469.49l1.73,3.31C536.86,1471.7,536.28,1470.6,535.71,1469.49Z" transform="translate(-488.69 -720.9)" style="fill:none"/><path d="M529.24,1456.22c.57,1.23,1.15,2.45,1.72,3.67C530.38,1458.67,529.8,1457.45,529.24,1456.22Z" transform="translate(-488.69 -720.9)" style="fill:none"/><path d="M531.13,1460.25c.26.54.51,1.08.77,1.61C531.64,1461.33,531.39,1460.79,531.13,1460.25Z" transform="translate(-488.69 -720.9)" style="fill:none"/><path d="M772.14,1716.86c11,.25,21.79,2.72,32.4,5.42a241.48,241.48,0,0,0,29,5.75c-13.12,5.21-25.45,14.07-32.75,25.41-4.58,7.11-7.36,16.59-4.25,24.87.3.81.65,1.6,1,2.37-16.23-.65-32.53-.93-48.59-3.42-7.72-1.19-18.34-3.45-25.55-8.27-6.24-4.25-9.84-10.46-6.6-19.64,3.79-10.74,14.21-18.74,23.75-24.16A60.41,60.41,0,0,1,772.14,1716.86Z" transform="translate(-488.69 -720.9)" style="fill:none"/><path d="M716.51,1657.47q2.82,1.85,5.65,3.66Q719.33,1659.32,716.51,1657.47Z" transform="translate(-488.69 -720.9)" style="fill:none"/><path d="M545.91,1487.85c.75,1.25,1.5,2.5,2.26,3.74C547.41,1490.35,546.66,1489.1,545.91,1487.85Z" transform="translate(-488.69 -720.9)" style="fill:none"/><path d="M549.2,1493.26q3.46,5.61,7.13,11.08Q552.67,1498.87,549.2,1493.26Z" transform="translate(-488.69 -720.9)" style="fill:none"/><path d="M557.4,1505.94q1.33,2,2.69,3.92Q558.74,1507.91,557.4,1505.94Z" transform="translate(-488.69 -720.9)" style="fill:none"/><path d="M538.68,1475.11c.57,1.06,1.15,2.11,1.73,3.15C539.83,1477.22,539.25,1476.17,538.68,1475.11Z" transform="translate(-488.69 -720.9)" style="fill:none"/><path d="M561.37,1511.7c1,1.41,2,2.81,3,4.21Q562.85,1513.81,561.37,1511.7Z" transform="translate(-488.69 -720.9)" style="fill:none"/><path d="M542.23,1481.53c.82,1.43,1.64,2.86,2.48,4.29C543.87,1484.39,543.05,1483,542.23,1481.53Z" transform="translate(-488.69 -720.9)" style="fill:none"/><path d="M931.65,1744c-1.15-.32-2.3-.62-3.46-.91C929.35,1743.37,930.5,1743.67,931.65,1744Z" transform="translate(-488.69 -720.9)" style="fill:none"/><path d="M925.36,1742.39l-1.82-.43Z" transform="translate(-488.69 -720.9)" style="fill:none"/><path d="M968.9,1758.29h0Z" transform="translate(-488.69 -720.9)" style="fill:none"/><path d="M937.08,1745.54l-2.93-.86Z" transform="translate(-488.69 -720.9)" style="fill:none"/><path d="M941.19,1746.83l2,.69-2.52-.85Z" transform="translate(-488.69 -720.9)" style="fill:none"/><path d="M918.87,1741l-1.76-.34Z" transform="translate(-488.69 -720.9)" style="fill:none"/><path d="M890.63,1737.27l-2.8-.18Z" transform="translate(-488.69 -720.9)" style="fill:none"/><path d="M893.16,1737.46l-1.09-.08Z" transform="translate(-488.69 -720.9)" style="fill:none"/><path d="M901,1738.21l-1.63-.17Z" transform="translate(-488.69 -720.9)" style="fill:none"/><path d="M906.67,1738.91l-.73-.1Z" transform="translate(-488.69 -720.9)" style="fill:none"/><path d="M913.5,1740l-1.54-.27Z" transform="translate(-488.69 -720.9)" style="fill:none"/><path d="M737.46,1670.62c1.79,1.07,3.58,2.15,5.38,3.21C741,1672.77,739.25,1671.69,737.46,1670.62Z" transform="translate(-488.69 -720.9)" style="fill:none"/><path d="M770.22,1689.05c1.56.82,3.11,1.65,4.68,2.46C773.33,1690.7,771.78,1689.87,770.22,1689.05Z" transform="translate(-488.69 -720.9)" style="fill:none"/><path d="M759.06,1683.05c1.67.92,3.34,1.85,5,2.76C762.4,1684.9,760.73,1684,759.06,1683.05Z" transform="translate(-488.69 -720.9)" style="fill:none"/><path d="M726.91,1664.13q2.75,1.74,5.52,3.44Q729.66,1665.88,726.91,1664.13Z" transform="translate(-488.69 -720.9)" style="fill:none"/><path d="M792,1700c3.93,1.85,7.91,3.65,11.94,5.37C799.88,1703.62,795.9,1701.82,792,1700Z" transform="translate(-488.69 -720.9)" style="fill:none"/><path d="M748.17,1676.92c1.74,1,3.48,2,5.23,3C751.65,1678.93,749.91,1677.92,748.17,1676.92Z" transform="translate(-488.69 -720.9)" style="fill:none"/><path d="M831.33,1715.43c1.13.35,2.26.69,3.4,1C833.59,1716.12,832.46,1715.78,831.33,1715.43Z" transform="translate(-488.69 -720.9)" style="fill:none"/><path d="M817.91,1710.94c-4.69-1.73-9.31-3.6-13.87-5.55,8.14,3.48,16.49,6.65,25,9.35Q823.42,1713,817.91,1710.94Z" transform="translate(-488.69 -720.9)" style="fill:none"/><path d="M921.73,1729.5c1.12.35,2.23.72,3.32,1.09C924,1730.22,922.85,1729.85,921.73,1729.5Z" transform="translate(-488.69 -720.9)" style="fill:none"/><path d="M970.29,1757v0Z" transform="translate(-488.69 -720.9)" style="fill:none"/><path d="M915.6,1727.69l.11,0Z" transform="translate(-488.69 -720.9)" style="fill:none"/><path d="M969.37,1758.13Z" transform="translate(-488.69 -720.9)" style="fill:none"/><path d="M1733.06,1085.51l.93.71-1.29-1Z" transform="translate(-488.69 -720.9)" style="fill:none"/><path d="M1863.1,1254c.15.41.33.82.48,1.23,1.08,2.8,2.11,5.62,3.13,8.46-1-2.83-2.06-5.66-3.13-8.46C1863.42,1254.86,1863.25,1254.45,1863.1,1254Z" transform="translate(-488.69 -720.9)" style="fill:none"/><path d="M1869.85,1272.79q3.75,11.25,7,22.7l.12.5c-.51-1.85-1-3.71-1.57-5.56Q1872.77,1281.55,1869.85,1272.79Z" transform="translate(-488.69 -720.9)" style="fill:none"/><path d="M967.82,1758.12h0Z" transform="translate(-488.69 -720.9)" style="fill:none"/><path d="M1852.88,1230.22c.49,1,1,2.12,1.46,3.18-.47-1-.94-2.07-1.42-3.09A.36.36,0,0,1,1852.88,1230.22Z" transform="translate(-488.69 -720.9)" style="fill:none"/><path d="M1513.92,1000.75h.53c2.22,0,4.44.09,6.66.16-2.22-.07-4.44-.13-6.66-.16Z" transform="translate(-488.69 -720.9)" style="fill:none"/><path d="M1788.89,1135.71l.21.23c1.26,1.36,2.48,2.75,3.72,4.13-1.23-1.38-2.46-2.77-3.72-4.13Z" transform="translate(-488.69 -720.9)" style="fill:none"/><path d="M830.89,1747.21l.55-.32c.64-.37,1.28-.72,1.93-1.06-.65.34-1.29.69-1.93,1.06C831.25,1747,831.07,1747.1,830.89,1747.21Z" transform="translate(-488.69 -720.9)" style="fill:none"/><path d="M811.37,1772.78c.61,2.53,2.2,5,4.81,7.53l.24.22-.24-.22c-4-3.91-5.66-7.66-4.92-11.73A10.06,10.06,0,0,0,811.37,1772.78Z" transform="translate(-488.69 -720.9)" style="fill:none"/><path d="M1308.44,1792h-5.69l-22.3,0Z" transform="translate(-488.69 -720.9)" style="fill:none"/><path d="M1346.47,1013.83h0Z" transform="translate(-488.69 -720.9)" style="fill:none"/><path d="M1335.34,1014.34l-3.47.1c1.77-.05,3.54-.1,5.31-.17l-.28,0Z" transform="translate(-488.69 -720.9)" style="fill:none"/><path d="M1327,1014.59c-1.37,0-2.75,0-4.12,0H1322c1.9,0,3.79,0,5.69-.08H1327Z" transform="translate(-488.69 -720.9)" style="fill:none"/><path d="M1372.19,1011.88l-5.65.51q4.29-.37,8.56-.78l-.18,0Z" transform="translate(-488.69 -720.9)" style="fill:none"/><path d="M1316.75,1014.69h0Z" transform="translate(-488.69 -720.9)" style="fill:none"/><path d="M1461.28,1002.79l-3.42.27q5.66-.48,11.31-.88l-3.05.23Z" transform="translate(-488.69 -720.9)" style="fill:none"/><path d="M1486.06,1001.21l-3.67.18q4.11-.2,8.23-.35l-2.13.08C1487.68,1001.15,1486.87,1001.17,1486.06,1001.21Z" transform="translate(-488.69 -720.9)" style="fill:none"/><path d="M1376.61,1011.46l2.84-.28-1.47.15Z" transform="translate(-488.69 -720.9)" style="fill:none"/><path d="M1445.81,1004.16l-2.55.24q6.48-.63,13-1.2l-5.88.53Z" transform="translate(-488.69 -720.9)" style="fill:none"/><path d="M1400.69,1009l-6.13.66-.9.1-7.83.82-.69.06q8.82-.9,17.64-1.88l-1.75.2Z" transform="translate(-488.69 -720.9)" style="fill:none"/><path d="M1305.15,1014.56l-.65,0c1.48,0,3,.09,4.46.11h-.23C1307.53,1014.63,1306.34,1014.58,1305.15,1014.56Z" transform="translate(-488.69 -720.9)" style="fill:none"/><path d="M1418,1007.06q8.91-1,17.83-1.91l-1.07.12C1429.14,1005.84,1423.56,1006.45,1418,1007.06Z" transform="translate(-488.69 -720.9)" style="fill:none"/><path d="M590.4,1548.68c.58.67,1.16,1.34,1.75,2,.92,1.06,1.86,2.1,2.8,3.15.62.7,1.25,1.41,1.88,2.1.88,1,1.77,2,2.66,2.91l1.63,1.77Q594,1552.95,587.2,1545l.33.39Q589,1547,590.4,1548.68Z" transform="translate(-488.69 -720.9)" style="fill:none"/><path d="M606.39,1566.22c.6.64,1.21,1.26,1.82,1.89.91,1,1.83,1.91,2.76,2.86q-4.65-4.77-9.21-9.66l2.22,2.36C604.78,1564.52,605.58,1565.38,606.39,1566.22Z" transform="translate(-488.69 -720.9)" style="fill:none"/><path d="M920.63,1729.16l-2.23-.67.52.15Z" transform="translate(-488.69 -720.9)" style="fill:none"/><path d="M791.42,1699.7c-1.91-.9-3.82-1.81-5.7-2.74-1.14-.56-2.26-1.14-3.39-1.7,1.13.56,2.25,1.14,3.39,1.7C787.6,1697.88,789.51,1698.8,791.42,1699.7Z" transform="translate(-488.69 -720.9)" style="fill:none"/><path d="M568.55,1521.63l1.21,1.61c1,1.33,2,2.64,3,4,.44.58.88,1.15,1.33,1.71q1.47,1.9,3,3.78l1.44,1.8q1.46,1.82,2.94,3.61l1,1.21c-6.25-7.56-12.28-15.33-18-23.29.34.49.7,1,1.06,1.46Q567,1519.55,568.55,1521.63Z" transform="translate(-488.69 -720.9)" style="fill:none"/><path d="M534.58,1467.27c-.73-1.43-1.44-2.87-2.15-4.31.59,1.19,1.17,2.37,1.77,3.56Z" transform="translate(-488.69 -720.9)" style="fill:none"/><path d="M1541.72,1002.13l-1.3-.11Z" transform="translate(-488.69 -720.9)" style="fill:none"/><path d="M523.58,1443.07c.55,1.37,1.12,2.74,1.69,4.11.18.44.37.87.56,1.31q-1.35-3.15-2.63-6.34c-.12-.3-.23-.61-.35-.92C523.09,1441.84,523.33,1442.46,523.58,1443.07Z" transform="translate(-488.69 -720.9)" style="fill:none"/><path d="M938,1735.56l-.48-.21h0Z" transform="translate(-488.69 -720.9)" style="fill:none"/><path d="M528.24,1454c-.61-1.37-1.21-2.73-1.81-4.1.54,1.24,1.09,2.48,1.64,3.72C528.12,1453.75,528.18,1453.87,528.24,1454Z" transform="translate(-488.69 -720.9)" style="fill:none"/><path d="M951.52,1742.31l.11.06c-.77-.44-1.56-.88-2.35-1.31l1.05.58C950.73,1741.86,951.13,1742.08,951.52,1742.31Z" transform="translate(-488.69 -720.9)" style="fill:none"/><path d="M947.12,1739.91c-1.3-.67-2.61-1.34-3.93-2l.09,0C944.57,1738.6,945.85,1739.25,947.12,1739.91Z" transform="translate(-488.69 -720.9)" style="fill:none"/><path d="M969.91,1755.65l0,0-.11-.11h0Z" transform="translate(-488.69 -720.9)" style="fill:none"/><path d="M970.33,1756.53v0Z" transform="translate(-488.69 -720.9)" style="fill:none"/><path d="M963.13,1750l-.58-.45.14.11Z" transform="translate(-488.69 -720.9)" style="fill:none"/><path d="M970.17,1756a.33.33,0,0,0-.06-.1l0,0Z" transform="translate(-488.69 -720.9)" style="fill:none"/><path d="M968.93,1754.77l-1.28-1.13.11.09Z" transform="translate(-488.69 -720.9)" style="fill:none"/><path d="M968.35,1758.3h0Z" transform="translate(-488.69 -720.9)" style="fill:none"/><path d="M954.11,1743.85l-2.08-1.24,1.6.94Z" transform="translate(-488.69 -720.9)" style="fill:none"/><path d="M961.69,1748.91l-1.51-1.09.25.18Z" transform="translate(-488.69 -720.9)" style="fill:none"/><path d="M956.56,1745.39c-.54-.36-1.09-.7-1.64-1,.29.18.59.35.88.54Z" transform="translate(-488.69 -720.9)" style="fill:none"/><path d="M958.46,1746.63l.78.54-1.65-1.11.54.35Z" transform="translate(-488.69 -720.9)" style="fill:none"/><path d="M1478.05,1001.62l-3.24.2Z" transform="translate(-488.69 -720.9)" style="fill:none"/><path d="M778.42,973.56c-1.69.61-3.39,1.22-5.07,1.86C775,974.78,776.73,974.17,778.42,973.56Z" transform="translate(-488.69 -720.9)" style="fill:none"/><path d="M860.32,954.08q-10,1.33-19.91,3.12Q850.33,955.42,860.32,954.08Z" transform="translate(-488.69 -720.9)" style="fill:none"/><path d="M1022.84,961.91l-1.45-.42Z" transform="translate(-488.69 -720.9)" style="fill:none"/><path d="M1033.5,965.32l-3.75-1.24Z" transform="translate(-488.69 -720.9)" style="fill:none"/><path d="M1040.68,967.78l-5.46-1.88Z" transform="translate(-488.69 -720.9)" style="fill:none"/><path d="M1027.12,963.23l-1-.32Z" transform="translate(-488.69 -720.9)" style="fill:none"/><path d="M741.69,989.58c-1.28.65-2.55,1.32-3.81,2C739.14,990.9,740.41,990.23,741.69,989.58Z" transform="translate(-488.69 -720.9)" style="fill:none"/><path d="M770.35,976.6c-1.42.56-2.85,1.11-4.26,1.69C767.5,977.71,768.93,977.16,770.35,976.6Z" transform="translate(-488.69 -720.9)" style="fill:none"/><path d="M748.67,986.09c-1.29.62-2.58,1.25-3.87,1.9C746.09,987.34,747.38,986.71,748.67,986.09Z" transform="translate(-488.69 -720.9)" style="fill:none"/><path d="M755.76,982.77c-1.32.59-2.64,1.19-3.94,1.81C753.12,984,754.44,983.36,755.76,982.77Z" transform="translate(-488.69 -720.9)" style="fill:none"/><path d="M763,979.61c-1.35.57-2.71,1.14-4.05,1.73C760.25,980.75,761.61,980.18,763,979.61Z" transform="translate(-488.69 -720.9)" style="fill:none"/><path d="M1416,1007.28l-8.72,1Z" transform="translate(-488.69 -720.9)" style="fill:none"/><path d="M1506.11,1000.72l-3,0C1504.12,1000.74,1505.11,1000.72,1506.11,1000.72Z" transform="translate(-488.69 -720.9)" style="fill:none"/><path d="M1497.15,1000.84l-2.35.06Z" transform="translate(-488.69 -720.9)" style="fill:none"/><path d="M1527.68,1001.19c-1.44-.07-2.88-.14-4.32-.19C1524.8,1001.05,1526.24,1001.12,1527.68,1001.19Z" transform="translate(-488.69 -720.9)" style="fill:none"/><path d="M1535.87,1001.66c-1.8-.12-3.6-.24-5.4-.34C1532.27,1001.42,1534.07,1001.54,1535.87,1001.66Z" transform="translate(-488.69 -720.9)" style="fill:none"/><path d="M1442.09,1004.52l-3.6.36Z" transform="translate(-488.69 -720.9)" style="fill:none"/><path d="M734.81,993.23c-1.26.69-2.52,1.4-3.77,2.1C732.29,994.63,733.55,993.92,734.81,993.23Z" transform="translate(-488.69 -720.9)" style="fill:none"/><path d="M1047.86,970.28l-5.87-2Z" transform="translate(-488.69 -720.9)" style="fill:none"/><path d="M1297.89,1014.34c-1.3-.05-2.6-.12-3.89-.18C1295.29,1014.22,1296.59,1014.29,1297.89,1014.34Z" transform="translate(-488.69 -720.9)" style="fill:none"/><path d="M1231.06,1008.58l-3.17-.39Z" transform="translate(-488.69 -720.9)" style="fill:none"/><path d="M1356.38,1013.2l-2.52.16Z" transform="translate(-488.69 -720.9)" style="fill:none"/><path d="M701.92,1013.91q-3.13,2.25-6.23,4.57Q698.78,1016.16,701.92,1013.91Z" transform="translate(-488.69 -720.9)" style="fill:none"/><path d="M1058.74,974l-5.6-1.87-1.81-.62,1.81.61c3.63,1.24,7.28,2.44,10.93,3.63l-.6-.19Z" transform="translate(-488.69 -720.9)" style="fill:none"/><path d="M1204.91,1005.06l-1.79-.26,8,1.15-.18,0Z" transform="translate(-488.69 -720.9)" style="fill:none"/><path d="M1194.55,1003.49c2.22.35,4.43.69,6.65,1-1.62-.24-3.25-.48-4.88-.74Z" transform="translate(-488.69 -720.9)" style="fill:none"/><path d="M1105.57,987.79l-2-.52c-1.19-.3-2.38-.62-3.57-.95l1.49.33c4,1,8.1,2,12.18,2.94l3.48.76-.49-.08Q1111.09,989.18,1105.57,987.79Z" transform="translate(-488.69 -720.9)" style="fill:none"/><path d="M1148.41,996.47c-9.22-1.48-18.36-3.32-27.48-5.3,9.12,2,18.27,3.82,27.48,5.29,5.8.93,11.48,1.66,17.28,2.11h0l2.72.49-2.74-.49C1159.88,998.13,1154.2,997.39,1148.41,996.47Z" transform="translate(-488.69 -720.9)" style="fill:none"/><path d="M1176,1000.42l-.26,0,6.53,1.12-1.1-.18Z" transform="translate(-488.69 -720.9)" style="fill:none"/><path d="M1216.31,1006.67l-.18,0,5.62.76h0C1219.93,1007.17,1218.12,1006.91,1216.31,1006.67Z" transform="translate(-488.69 -720.9)" style="fill:none"/><path d="M1258,1011.53c2.86.28,5.73.53,8.59.78q-4-.34-8-.72Z" transform="translate(-488.69 -720.9)" style="fill:none"/><path d="M1271.21,1012.68l6.57.51-4.3-.32Z" transform="translate(-488.69 -720.9)" style="fill:none"/><path d="M728,997.05c-1.26.73-2.52,1.48-3.77,2.23C725.51,998.53,726.77,997.78,728,997.05Z" transform="translate(-488.69 -720.9)" style="fill:none"/><path d="M1243,1010c-2-.22-4.11-.46-6.16-.7h0l8,.91-.17,0Z" transform="translate(-488.69 -720.9)" style="fill:none"/><path d="M1254.13,1011.16c-2.09-.2-4.18-.42-6.27-.64l-.56-.06,9.39,1-.51,0C1255.5,1011.3,1254.81,1011.24,1254.13,1011.16Z" transform="translate(-488.69 -720.9)" style="fill:none"/><path d="M714.77,1005.17c-1.32.86-2.63,1.73-3.95,2.61C712.14,1006.9,713.45,1006,714.77,1005.17Z" transform="translate(-488.69 -720.9)" style="fill:none"/><path d="M1281.62,1013.46l-1.27-.09q4.39.3,8.8.56H1289C1286.54,1013.78,1284.08,1013.62,1281.62,1013.46Z" transform="translate(-488.69 -720.9)" style="fill:none"/><path d="M708.3,1009.46c-1.51,1-3,2.07-4.48,3.12C705.31,1011.53,706.79,1010.49,708.3,1009.46Z" transform="translate(-488.69 -720.9)" style="fill:none"/><path d="M721.35,1001c-1.27.78-2.54,1.58-3.81,2.38C718.81,1002.61,720.08,1001.81,721.35,1001Z" transform="translate(-488.69 -720.9)" style="fill:none"/><path d="M520.61,1435.37c0,.14.1.28.16.42C520.71,1435.65,520.66,1435.51,520.61,1435.37Z" transform="translate(-488.69 -720.9)" style="fill:none"/><path d="M678.38,1032.42c.83-.72,1.68-1.41,2.52-2.12l-3,2.56Z" transform="translate(-488.69 -720.9)" style="fill:none"/><path d="M932.16,949.66a396.27,396.27,0,0,1,45.29,3,300.22,300.22,0,0,1,34.67,6.38,298.07,298.07,0,0,0-34.67-6.37A394,394,0,0,0,932.16,949.66Z" transform="translate(-488.69 -720.9)" style="fill:none"/><path d="M687.14,1025.16q-1.83,1.47-3.65,2.95Q685.31,1026.63,687.14,1025.16Z" transform="translate(-488.69 -720.9)" style="fill:none"/><path d="M694,1019.76c-1.51,1.14-3,2.29-4.5,3.47C691,1022.05,692.53,1020.9,694,1019.76Z" transform="translate(-488.69 -720.9)" style="fill:none"/><path d="M1515.58,1706.37c.22-.83.45-1.65.69-2.47a112.93,112.93,0,0,0-3,35.48l-.31.11c-.15-1.73-.27-3.48-.32-5.22A97.85,97.85,0,0,1,1515.58,1706.37Z" transform="translate(-488.69 -720.9)" style="fill:#dbc6c6"/><path d="M1733.06,1085.51l.93.71-1.29-1Z" transform="translate(-488.69 -720.9)" style="fill:none"/><path d="M1810.9,1161.81q-7.74-10-16.11-19.56Q1803.16,1151.76,1810.9,1161.81Z" transform="translate(-488.69 -720.9)" style="fill:none"/><path d="M860.32,954.08q-10,1.33-19.91,3.12Q850.33,955.42,860.32,954.08Z" transform="translate(-488.69 -720.9)" style="fill:none"/><path d="M1872.5,1281q-1.29-4.12-2.65-8.22Q1871.22,1276.89,1872.5,1281Z" transform="translate(-488.69 -720.9)" style="fill:none"/><path d="M678.38,1032.42c.83-.72,1.68-1.41,2.52-2.12l-3,2.56Z" transform="translate(-488.69 -720.9)" style="fill:none"/><path d="M1720.41,1744q3.72-2.43,7.42-4.91Q1724.14,1741.54,1720.41,1744Z" transform="translate(-488.69 -720.9)" style="fill:none"/><path d="M1748.1,1724.84l2.1-1.54Z" transform="translate(-488.69 -720.9)" style="fill:none"/><path d="M1730.79,1737.06l3.72-2.55Z" transform="translate(-488.69 -720.9)" style="fill:none"/><path d="M1738.87,1731.46l3-2.12Z" transform="translate(-488.69 -720.9)" style="fill:none"/><path d="M932.16,949.66a396.27,396.27,0,0,1,45.29,3,300.22,300.22,0,0,1,34.67,6.38,298.07,298.07,0,0,0-34.67-6.37A394,394,0,0,0,932.16,949.66Z" transform="translate(-488.69 -720.9)" style="fill:none"/><path d="M1194.55,1003.49c2.22.35,4.43.69,6.65,1-1.62-.24-3.25-.48-4.88-.74Z" transform="translate(-488.69 -720.9)" style="fill:none"/><path d="M1176,1000.42l-.26,0,6.53,1.12-1.1-.18Z" transform="translate(-488.69 -720.9)" style="fill:none"/><path d="M1204.91,1005.06l-1.79-.26,8,1.15-.18,0Z" transform="translate(-488.69 -720.9)" style="fill:none"/><path d="M1216.13,1006.64l5.18.7-5-.67Z" transform="translate(-488.69 -720.9)" style="fill:none"/><path d="M1058.74,974l-5.6-1.87-1.81-.62,1.81.61c3.63,1.24,7.28,2.44,10.93,3.63l-.6-.19Z" transform="translate(-488.69 -720.9)" style="fill:none"/><path d="M1148.41,996.47c-9.22-1.48-18.36-3.32-27.48-5.3,9.12,2,18.27,3.82,27.48,5.29,5.8.93,11.48,1.66,17.28,2.11h0l2.72.49-2.74-.49C1159.88,998.13,1154.2,997.39,1148.41,996.47Z" transform="translate(-488.69 -720.9)" style="fill:none"/><path d="M824.11,1785.63c-.22-.1-.43-.22-.65-.33.55.27,1.12.51,1.69.76Z" transform="translate(-488.69 -720.9)" style="fill:none"/><path d="M1105.57,987.79l-2-.52c-1.19-.3-2.38-.62-3.57-.95l1.49.33c4,1,8.1,2,12.18,2.94l3.48.76-.49-.08Q1111.09,989.18,1105.57,987.79Z" transform="translate(-488.69 -720.9)" style="fill:none"/><path d="M810.32,1708q2.34.93,4.7,1.83C813.45,1709.22,811.88,1708.62,810.32,1708Z" transform="translate(-488.69 -720.9)" style="fill:none"/><path d="M632.11,1591.53q8.57,8,17.43,15.57Q640.67,1599.48,632.11,1591.53Z" transform="translate(-488.69 -720.9)" style="fill:none"/><path d="M572.91,1527.37c.32.41.63.82,1,1.22Z" transform="translate(-488.69 -720.9)" style="fill:none"/><path d="M568.63,1521.74l.47.62Z" transform="translate(-488.69 -720.9)" style="fill:none"/><path d="M593.37,1552.05l1.39,1.57C594.3,1553.09,593.83,1552.57,593.37,1552.05Z" transform="translate(-488.69 -720.9)" style="fill:none"/><path d="M577.59,1533.33c.13.17.27.33.4.49C577.86,1533.66,577.72,1533.5,577.59,1533.33Z" transform="translate(-488.69 -720.9)" style="fill:none"/><path d="M549.2,1493.26q3.46,5.61,7.13,11.08Q552.67,1498.87,549.2,1493.26Z" transform="translate(-488.69 -720.9)" style="fill:none"/><path d="M772.14,1716.86c11,.25,21.79,2.72,32.4,5.42a241.48,241.48,0,0,0,29,5.75c-13.12,5.21-25.45,14.07-32.75,25.41-4.58,7.11-7.36,16.59-4.25,24.87.3.81.65,1.6,1,2.37-16.23-.65-32.53-.93-48.59-3.42-7.72-1.19-18.34-3.45-25.55-8.27-6.24-4.25-9.84-10.46-6.6-19.64,3.79-10.74,14.21-18.74,23.75-24.16A60.41,60.41,0,0,1,772.14,1716.86Z" transform="translate(-488.69 -720.9)" style="fill:none"/><path d="M523.2,1442.15c-.12-.3-.23-.61-.35-.92l.66,1.66C523.41,1442.65,523.3,1442.4,523.2,1442.15Z" transform="translate(-488.69 -720.9)" style="fill:none"/><path d="M811.81,1774.15c.06.16.12.33.19.5C811.93,1774.48,811.87,1774.31,811.81,1774.15Z" transform="translate(-488.69 -720.9)" style="fill:none"/><path d="M814.61,1778.63c.12.15.26.3.39.45C814.87,1778.93,814.73,1778.78,814.61,1778.63Z" transform="translate(-488.69 -720.9)" style="fill:none"/><path d="M811.4,1772.87c0,.17.09.34.14.51C811.49,1773.21,811.44,1773,811.4,1772.87Z" transform="translate(-488.69 -720.9)" style="fill:none"/><path d="M812.55,1775.73c.09.18.2.35.31.53C812.75,1776.08,812.64,1775.91,812.55,1775.73Z" transform="translate(-488.69 -720.9)" style="fill:none"/><path d="M1243,1010c-2-.22-4.11-.46-6.16-.7h0l8,.91-.17,0Z" transform="translate(-488.69 -720.9)" style="fill:none"/><path d="M813.4,1777.08c.11.16.22.33.34.49C813.62,1777.41,813.51,1777.24,813.4,1777.08Z" transform="translate(-488.69 -720.9)" style="fill:none"/><path d="M941.19,1746.83l2,.69-2.52-.85Z" transform="translate(-488.69 -720.9)" style="fill:none"/><path d="M811.12,1769.88c0,.16,0,.32,0,.48C811.1,1770.2,811.11,1770,811.12,1769.88Z" transform="translate(-488.69 -720.9)" style="fill:none"/><path d="M811.14,1771.23c0,.16,0,.32,0,.48C811.15,1771.55,811.15,1771.39,811.14,1771.23Z" transform="translate(-488.69 -720.9)" style="fill:none"/><path d="M817.91,1710.94c-.44-.16-.86-.34-1.29-.5q6.14,2.3,12.41,4.3Q823.42,1713,817.91,1710.94Z" transform="translate(-488.69 -720.9)" style="fill:none"/><path d="M958.46,1746.63l.78.54-1.65-1.11.54.35Z" transform="translate(-488.69 -720.9)" style="fill:none"/><path d="M956.56,1745.39c-.54-.36-1.09-.7-1.64-1,.29.18.59.35.88.54Z" transform="translate(-488.69 -720.9)" style="fill:none"/><path d="M961.69,1748.91l-1.51-1.09.25.18Z" transform="translate(-488.69 -720.9)" style="fill:none"/><path d="M963.13,1750l-.58-.45.14.11Z" transform="translate(-488.69 -720.9)" style="fill:none"/><path d="M970.17,1756a.33.33,0,0,0-.06-.1l0,0Z" transform="translate(-488.69 -720.9)" style="fill:none"/><path d="M968.93,1754.77l-1.28-1.13.11.09Z" transform="translate(-488.69 -720.9)" style="fill:none"/><path d="M967.82,1758.12h0Z" transform="translate(-488.69 -720.9)" style="fill:none"/><path d="M969.91,1755.65l0,0-.11-.11h0Z" transform="translate(-488.69 -720.9)" style="fill:none"/><path d="M947.12,1739.91c-1.3-.67-2.61-1.34-3.93-2l.09,0C944.57,1738.6,945.85,1739.25,947.12,1739.91Z" transform="translate(-488.69 -720.9)" style="fill:none"/><path d="M791.42,1699.7c-1.91-.9-3.82-1.81-5.7-2.74-1.14-.56-2.26-1.14-3.39-1.7,1.13.56,2.25,1.14,3.39,1.7C787.6,1697.88,789.51,1698.8,791.42,1699.7Z" transform="translate(-488.69 -720.9)" style="fill:none"/><path d="M608.21,1568.11c.91,1,1.83,1.91,2.76,2.86q-3.15-3.24-6.26-6.53l1.68,1.78C607,1566.86,607.6,1567.48,608.21,1568.11Z" transform="translate(-488.69 -720.9)" style="fill:none"/><path d="M920.63,1729.16l-2.23-.67.52.15Z" transform="translate(-488.69 -720.9)" style="fill:none"/><path d="M1254.13,1011.16c-2.09-.2-4.18-.42-6.27-.64l-.56-.06,9.39,1-.51,0C1255.5,1011.3,1254.81,1011.24,1254.13,1011.16Z" transform="translate(-488.69 -720.9)" style="fill:none"/><path d="M951.52,1742.31l.11.06c-.77-.44-1.56-.88-2.35-1.31l1.05.58C950.73,1741.86,951.13,1742.08,951.52,1742.31Z" transform="translate(-488.69 -720.9)" style="fill:none"/><path d="M938,1735.56l-.48-.21h0Z" transform="translate(-488.69 -720.9)" style="fill:none"/><path d="M954.11,1743.85l-2.08-1.24,1.6.94Z" transform="translate(-488.69 -720.9)" style="fill:none"/><path d="M830.89,1747.21l.55-.32c.64-.37,1.28-.72,1.93-1.06-.65.34-1.29.69-1.93,1.06C831.25,1747,831.07,1747.1,830.89,1747.21Z" transform="translate(-488.69 -720.9)" style="fill:none"/><path d="M1327,1014.59c-1.37,0-2.75,0-4.12,0H1322c1.9,0,3.79,0,5.69-.08H1327Z" transform="translate(-488.69 -720.9)" style="fill:none"/><path d="M1372.19,1011.88l-5.65.51q4.29-.37,8.56-.78l-.18,0Z" transform="translate(-488.69 -720.9)" style="fill:none"/><path d="M1305.15,1014.56l-.65,0c1.48,0,3,.09,4.46.11h-.23C1307.53,1014.63,1306.34,1014.58,1305.15,1014.56Z" transform="translate(-488.69 -720.9)" style="fill:none"/><path d="M1335.34,1014.34l-3.47.1c1.77-.05,3.54-.1,5.31-.17l-.28,0Z" transform="translate(-488.69 -720.9)" style="fill:none"/><path d="M1346.47,1013.83h0Z" transform="translate(-488.69 -720.9)" style="fill:none"/><path d="M1316.75,1014.69h0Z" transform="translate(-488.69 -720.9)" style="fill:none"/><path d="M1281.62,1013.46l-1.27-.09q4.39.3,8.8.56H1289C1286.54,1013.78,1284.08,1013.62,1281.62,1013.46Z" transform="translate(-488.69 -720.9)" style="fill:none"/><path d="M1258,1011.53c2.86.28,5.73.53,8.59.78q-4-.34-8-.72Z" transform="translate(-488.69 -720.9)" style="fill:none"/><path d="M1271.21,1012.68l6.57.51-4.3-.32Z" transform="translate(-488.69 -720.9)" style="fill:none"/><path d="M1788.89,1135.71l.21.23c1.26,1.36,2.48,2.75,3.72,4.13-1.23-1.38-2.46-2.77-3.72-4.13Z" transform="translate(-488.69 -720.9)" style="fill:none"/><path d="M1376.61,1011.46l2.84-.28-1.47.15Z" transform="translate(-488.69 -720.9)" style="fill:none"/><path d="M1863.1,1254c.15.41.33.82.48,1.23,1.08,2.8,2.11,5.62,3.13,8.46-1-2.83-2.06-5.66-3.13-8.46C1863.42,1254.86,1863.25,1254.45,1863.1,1254Z" transform="translate(-488.69 -720.9)" style="fill:none"/><path d="M816.42,1780.53l-.24-.22-.08-.09.08.09Z" transform="translate(-488.69 -720.9)" style="fill:none"/><path d="M1718.39,1745.27c-1.62,1-3.24,2.08-4.87,3.1h0C1715.15,1747.35,1716.77,1746.31,1718.39,1745.27Z" transform="translate(-488.69 -720.9)" style="fill:none"/><path d="M1872.82,1282q2.09,6.71,4,13.46l.12.5c-.51-1.85-1-3.71-1.57-5.56Q1874.12,1286.21,1872.82,1282Z" transform="translate(-488.69 -720.9)" style="fill:none"/><path d="M1400.69,1009l-6.13.66-.9.1-7.83.82-.69.06q8.82-.9,17.64-1.88l-1.75.2Z" transform="translate(-488.69 -720.9)" style="fill:none"/><path d="M1513.92,1000.75h.53c2.22,0,4.44.09,6.66.16-2.22-.07-4.44-.13-6.66-.16Z" transform="translate(-488.69 -720.9)" style="fill:none"/><path d="M509.91,1246.12c20.88-50,51.22-94.88,84.26-137.61l.21-.28,10.24-13.06c8.15-10.27,16.41-20.46,24.65-30.66,3.2-4.86,6.91-9.43,10.55-13.94s7.39-9,11.26-13.29c2.32-2.59,4.69-5.15,7.11-7.65,2.57-2.65,5.2-5.25,7.91-7.77a283,283,0,0,1,36.43-28.52h0l1.22-.8q3.81-2.5,7.68-4.9l9.33-5.56c.72-.42,1.44-.85,2.17-1.26,31.83-18,66.74-30.16,102.48-37.5A490.17,490.17,0,0,1,936.9,933.23c1,0,2.06,0,3.09.09h0c4.37.15,8.74.38,13.1.66h.11q12.16.78,24.24,2.23,12.45,1.53,24.76,3.94c1.63.32,3.27.63,4.89,1h0c3.92.84,7.82,1.73,11.71,2.72,11.73,3,23,7.16,34.45,11.11.55.19,1.09.39,1.64.57q10.13,3.5,20.35,6.66,11,3.42,22.16,6.56c9,2.07,17.94,4.19,26.89,6.21q4.88,1.11,9.76,2.16,11.19,1.8,22.38,3.41a4.17,4.17,0,0,1,3,1.76q24.22,4.63,48.63,8.22c53.8,7.89,108,11.68,162.29,7.09,49.48-4.19,98.83-12,148.62-10q7.68.32,15.33,1c43.71,1.23,87.29,17.57,126.21,35.71,37.86,17.66,73.33,39.75,105.09,66.74,5.39,4.52,10.68,9.15,15.85,14a382,382,0,0,1,84.39,114,390.5,390.5,0,0,1,19.08,47.71A510.53,510.53,0,0,1,1907.4,1464c-4.68,52.36-18.38,103.74-42.81,150.77a346.38,346.38,0,0,1-62.5,85.07q-10.93,11-22.8,20.9c-20.13,16.86-42.25,31.6-64.52,45.46q-4.8,3-9.7,5.88c-21.18,12.45-43.55,23.11-67.26,29.65-24.27,6.7-49.2,7.88-74.24,7.79-19.26-.06-39.12,1.35-57.94-3.39a120.43,120.43,0,0,1-15.18,1.51c-6.61.3-13.25.25-19.85.25l-11.84-.05c-11.65,1-23.57.39-35.13.31q-10.38-.08-20.77-.12-13-.07-26-.19-46.26-.48-92.53-.63c-48.62-.18-97.22-.44-145.82-1.11a4.89,4.89,0,0,1-1.37.18c-51.25-.28-102.54-1.21-153.78-.25-31.65.59-63.29,1.62-95,2.18-22.75.39-47.59,1-69-7.77a46.73,46.73,0,0,1-9.31-5,77.3,77.3,0,0,1-10.21.29c-10-.16-20.12-.69-30.15-1.38-19.76-1.37-44.18-2.46-59.71-16.29a28.84,28.84,0,0,1-5.73-7.11c-.23-.37-.45-.74-.65-1.11l0-.06c-.06-.11-.11-.22-.16-.33a26,26,0,0,1-2.28-6c-.06-.22-.12-.43-.17-.65h0a30.09,30.09,0,0,1-.72-10.27c1.05-10,6.23-18.71,13-25.92.93-1,1.89-2,2.88-3a77.93,77.93,0,0,1,43.3-21c1.71-.25,3.43-.46,5.17-.6q-2.7-1.33-5.36-2.71c-1.29-.66-2.57-1.33-3.85-2l-1.55-.8-.85-.46a633,633,0,0,1-77.21-48.82c-61.48-45.1-117.65-101.36-153.23-169.44-17.93-34.32-29.79-71.58-33.07-110.23C486,1326,493.92,1284.47,509.91,1246.12Zm230.68,479.07c-9.54,5.42-20,13.42-23.75,24.16-3.24,9.18.36,15.39,6.6,19.64,7.21,4.82,17.83,7.08,25.55,8.27,16.06,2.49,32.36,2.77,48.59,3.42-.36-.77-.71-1.56-1-2.37-3.11-8.28-.33-17.76,4.25-24.87,7.3-11.34,19.63-20.2,32.75-25.41a241.48,241.48,0,0,1-29-5.75c-10.61-2.7-21.41-5.17-32.4-5.42A60.41,60.41,0,0,0,740.59,1725.19ZM507.82,1387.65a266.06,266.06,0,0,0,12.79,47.72c0,.14.1.28.16.42.67,1.82,1.37,3.63,2.08,5.44.12.31.23.62.35.92s.21.5.31.74c.75,1.87,1.53,3.74,2.32,5.6l.6,1.41c.6,1.37,1.2,2.73,1.81,4.1.33.74.66,1.48,1,2.22.57,1.23,1.15,2.45,1.72,3.67l.17.36c.26.54.51,1.08.77,1.61.17.37.36.73.53,1.1.71,1.44,1.42,2.88,2.15,4.31.37.74.75,1.48,1.13,2.22l1.73,3.31c.41.77.82,1.54,1.24,2.31.57,1.06,1.15,2.11,1.73,3.15s1.21,2.18,1.82,3.27c.82,1.43,1.64,2.86,2.48,4.29l1.2,2c.75,1.25,1.5,2.5,2.26,3.74l1,1.67q3.46,5.61,7.13,11.08l1.07,1.6q1.33,2,2.69,3.92l1.28,1.84c1,1.41,2,2.81,3,4.21a.61.61,0,0,0,.07.1q2.07,2.88,4.2,5.73l.47.62q1.89,2.52,3.81,5l1,1.22q1.86,2.39,3.73,4.74c.13.17.27.33.4.49q2.21,2.76,4.45,5.48c.39.47.77.94,1.16,1.4l2,2.37,1.61,1.9q3,3.57,6.17,7.08c.46.52.93,1,1.39,1.57q3.15,3.53,6.36,7c.21.23.42.47.64.7,1,1,2,2.09,3,3.13q3.1,3.29,6.26,6.53l1.36,1.38c1.06,1.08,2.12,2.16,3.2,3.23l.59.59c1.5,1.51,3,3,4.54,4.49l.23.23c2.63,2.57,5.3,5.1,8,7.62l1.75,1.66c.49.46,1,.9,1.49,1.36q8.57,8,17.43,15.57c2,1.76,4.1,3.51,6.16,5.24l1.74,1.47c2.22,1.85,4.47,3.67,6.71,5.49l2.73,2.22c2.11,1.68,4.24,3.34,6.36,5,1.09.85,2.17,1.7,3.25,2.53,2,1.57,4.1,3.12,6.16,4.67l3.61,2.7c2,1.47,4,2.93,6,4.38l3.92,2.81q2.92,2.09,5.88,4.12,2.1,1.45,4.21,2.9,2.87,2,5.75,3.88c1.49,1,3,2,4.48,3q2.82,1.85,5.65,3.66,2.37,1.51,4.75,3,2.75,1.74,5.52,3.44c1.67,1,3.35,2,5,3s3.58,2.15,5.38,3.21,3.55,2.06,5.33,3.09,3.48,2,5.23,3,3.77,2.1,5.66,3.14c1.67.92,3.34,1.85,5,2.76,2,1.09,4.08,2.16,6.13,3.24,1.56.82,3.11,1.65,4.68,2.46,2.47,1.27,5,2.51,7.43,3.75,1.13.56,2.25,1.14,3.39,1.7,1.88.93,3.79,1.84,5.7,2.74l.55.27c3.93,1.85,7.91,3.65,11.94,5.37l.13.05q3.12,1.33,6.28,2.61c1.56.62,3.13,1.22,4.7,1.83l1.6.61c.43.16.85.34,1.29.5q5.51,2,11.12,3.8l2.3.69c1.13.35,2.26.69,3.4,1a188.32,188.32,0,0,0,27.09,5.74,162.45,162.45,0,0,1,53.78,5.5l.11,0,1.93.54.76.23,2.23.67,1.1.34c1.12.35,2.23.72,3.32,1.09l.35.12c4.09,1.42,8.13,3,12.08,4.64l.48.21c1.76.77,3.5,1.55,5.23,2.38,1.32.63,2.63,1.3,3.93,2,.72.38,1.45.76,2.16,1.15s1.58.87,2.35,1.31l.4.24,2.08,1.24.81.5c.55.34,1.1.68,1.64,1l1,.67,1.65,1.11.94.65,1.51,1.09.86.63.58.45c1.53,1.17,3,2.38,4.52,3.65l1.28,1.13c.3.26.6.52.89.79l.11.11a1.88,1.88,0,0,1,.18.24.33.33,0,0,1,.06.1,1.33,1.33,0,0,1,.16.5v0a1.41,1.41,0,0,1,0,.46v0a1.81,1.81,0,0,1-.91,1.11h0a1.86,1.86,0,0,1-.47.16h0a1.4,1.4,0,0,1-.5,0h0a1.7,1.7,0,0,1-.51-.17h0l0,0a1.42,1.42,0,0,1-.53-.17,170.82,170.82,0,0,0-24.06-10.41l-2-.69-.51-.16c-1.19-.39-2.4-.76-3.6-1.13l-2.93-.86c-.83-.24-1.66-.47-2.5-.69-1.15-.32-2.3-.62-3.46-.91-.94-.24-1.88-.47-2.83-.69l-1.82-.43c-1.55-.35-3.11-.67-4.67-1l-1.76-.34-3.61-.65-1.54-.27q-2.64-.43-5.29-.8l-.73-.1c-1.63-.22-3.26-.42-4.9-.6l-1.63-.17c-1.59-.17-3.18-.33-4.77-.46l-1.48-.12-1.09-.08-1.44-.11-2.8-.18-.77,0-3.1-.16-.49,0c-1.1,0-2.2-.08-3.3-.1H880c-1.12,0-2.24,0-3.35,0h-.2c-1.09,0-2.17,0-3.26,0h-.5c-1,0-2.09.06-3.13.1l-.57,0c-1.05,0-2.09.12-3.13.2l-.75.06-1.37.12-.73.07-1.45.16-.68.08-1.49.19-.65.1-1.52.23-.6.09-1.61.29-.51.09-1.82.37-.27.06c-1.42.31-2.82.65-4.22,1l-.44.12-1.6.46-.68.22-1.34.43-.78.26-1.24.44-.82.31-1.18.46-.83.33-1.18.5-.81.36-1.21.56-.75.36-1.34.68-.61.31c-.65.34-1.29.69-1.93,1.06l-.55.32c-7.1,4.13-13.82,9.56-17.9,16.78-.33.59-.61,1.18-.86,1.75-.07.16-.14.32-.2.48s-.1.28-.15.42-.17.48-.24.71l-.06.24c-.08.3-.15.59-.21.89,0,0,0,.06,0,.1a9.74,9.74,0,0,0-.14,1.3c0,.16,0,.32,0,.48a8.44,8.44,0,0,0,0,.87c0,.16,0,.32,0,.48a9.9,9.9,0,0,0,.23,1.16c0,.17.09.34.14.51s.17.51.27.77.12.33.19.5c.16.36.35.72.55,1.08.09.18.2.35.31.53s.34.54.54.82.22.33.34.49c.27.35.56.71.87,1.06.12.15.26.3.39.45.35.38.7.76,1.1,1.14l.08.09.24.22c.47.44,1,.86,1.45,1.27.31.24.63.47,1,.7s.55.42.84.61.83.54,1.25.79l.61.37c.47.27.94.52,1.42.76l.52.27c.22.11.43.23.65.33l1,.43c.42.18.84.36,1.28.53l.34.13c5.75,2.14,12.07,3.18,17.79,4.08,11.59,1.82,23.45,2.11,35.15,2.24,32.07.36,64.08-1,96.13-1.69,33.33-.72,66.56-.59,99.76,1,13.11-.17,26.22-.17,39.33-.17q47.88,0,95.75-.16,34.89-.09,69.77,0l22.3,0h5.69q29.11.06,58.22.2c24.35.13,48.7.29,73,.67,6.94.11,13.88.17,20.82.29,4.37.08,8.73.18,13.09.35l3,.11,3.62.14c-.75-.69-1.45-1.41-2.12-2.16a22,22,0,0,1-5.91-14.73,24.92,24.92,0,0,1,.24-3.6c1.2-8.43,8.68-15.3,15.09-20.08a103.88,103.88,0,0,1,10.29-6.78,81.36,81.36,0,0,1,15.2-6.94l.31-.11a112.93,112.93,0,0,1,3-35.48,117,117,0,0,1,41.19-63.75,125.29,125.29,0,0,1,52.09-24.49,118.56,118.56,0,0,1,16-2.19,116.23,116.23,0,0,1,13.07-.18c10,.44,19.79,4.07,28.81,7.94.69.29.31,1.38-.37,1.36a169,169,0,0,0-27,1.57c-9.09,1.31-18,2-27,4.28a120.7,120.7,0,0,0-46,23c-25.67,21-40,52-38.39,84.91,19.33-1.33,38.15,5.88,54.22,16.45,4.35,2.86.29,9.89-4.1,7-18.26-12-43.19-13.63-63.42-5.74a62.92,62.92,0,0,0-6.42,2.9c-8,4.19-17.75,9.55-21.76,18-.52,1.1-.34,2,.31,3.88-.65-1.88,1.56,1.94.88,1.26a23.75,23.75,0,0,0,1.76,1.86c.54.51,1.09,1,1.66,1.47,4.13,3.42,12.13,6.15,18.7,7.79,8.76,2.19,17.28,2.41,26.38,2.38,25.18-.1,50.69,1.35,75.67-2.59,27.23-4.29,52.69-14.87,76.67-28.21,8.2-4.56,16.31-9.4,24.31-14.44,1.63-1,3.25-2.06,4.87-3.1.67-.44,1.34-.88,2-1.31q3.72-2.43,7.42-4.91c1-.66,2-1.32,3-2l3.72-2.55q2.19-1.52,4.36-3l3-2.12c2.08-1.49,4.16-3,6.22-4.5l2.1-1.54c2.37-1.75,4.74-3.51,7.08-5.28a333.25,333.25,0,0,0,88.41-102c43.57-77.38,54.58-169.25,43.51-256.4a490.08,490.08,0,0,0-12.28-63.62l-.12-.5q-1.89-6.77-4-13.46c-.1-.34-.21-.68-.32-1q-1.29-4.12-2.65-8.22l-.06-.17c-1-2.86-1.94-5.71-3-8.55l-.12-.34c-1-2.84-2-5.66-3.13-8.46-.15-.41-.33-.82-.48-1.23q-1.17-3-2.4-6c-.39-1-.79-1.92-1.19-2.87q-.91-2.17-1.85-4.35c-.49-1.11-1-2.22-1.47-3.33-.6-1.36-1.22-2.71-1.85-4.06-.49-1.06-1-2.13-1.46-3.18-.94-2-1.91-4-2.88-5.92-.4-.81-.8-1.62-1.21-2.43-1-1.9-1.94-3.8-2.93-5.68-.46-.88-.93-1.75-1.39-2.62q-1.38-2.55-2.79-5.09c-.56-1-1.14-2-1.72-3q-1.1-1.93-2.22-3.85t-2.35-4c-.75-1.24-1.51-2.48-2.27-3.72-.64-1-1.27-2.05-1.91-3.06-1-1.59-2-3.16-3-4.73-.7-1.07-1.4-2.13-2.11-3.19s-1.53-2.27-2.3-3.4c-1-1.45-2-2.9-3-4.33l-2-2.79q-1.66-2.31-3.35-4.6l-2.18-2.91c-.75-1-1.5-2-2.26-3l-.09-.12q-7.74-10-16.11-19.56c-.65-.73-1.32-1.45-2-2.18-1.24-1.38-2.46-2.77-3.72-4.13l-.21-.23q-3-3.23-6-6.39c-.68-.7-1.38-1.39-2.07-2.09-1.45-1.48-2.9-3-4.38-4.42-.74-.74-1.5-1.46-2.25-2.19-1.45-1.41-2.91-2.83-4.39-4.22-.72-.69-1.46-1.36-2.19-2.05-1.54-1.42-3.08-2.85-4.64-4.25l-2-1.83c-1.64-1.46-3.3-2.92-5-4.35l-1.87-1.6c-1.76-1.5-3.54-3-5.32-4.46l-1.68-1.38q-2.8-2.28-5.65-4.53l-1.52-1.2q-2.92-2.28-5.9-4.53l-.93-.71-.36-.26a495.72,495.72,0,0,0-80.55-47.62,484.22,484.22,0,0,0-70.81-27.44c-8-2.35-16.09-4.52-24.23-6.41q-7.68-1-15.39-1.65l-1.3-.11c-1.51-.13-3-.25-4.55-.36-1.8-.12-3.6-.24-5.4-.34l-2.79-.13c-1.44-.07-2.88-.14-4.32-.19l-2.25-.08c-2.22-.07-4.44-.13-6.66-.16h-.53q-3.92,0-7.81,0l-3,0q-3,0-6,.09l-2.35.06-4.18.14q-4.12.15-8.23.35c-1.45.08-2.9.14-4.34.23l-3.24.2q-2.82.16-5.64.36-5.65.41-11.31.88l-1.63.14q-6.48.57-13,1.2l-1.17.12-3.6.36-2.69.27q-8.91.93-17.83,1.91l-2,.22-8.72,1-4.46.49q-8.82,1-17.64,1.88c-1.89.2-3.79.38-5.69.57l-2.84.28-1.51.15q-4.27.4-8.56.78l-.55.05c-3.2.27-6.41.53-9.61.76l-2.52.16c-2.4.16-4.8.32-7.19.46h-.2q-4.63.25-9.29.44c-1.77.07-3.54.12-5.31.17-1.38,0-2.77.1-4.16.13-1.9,0-3.79.06-5.69.08l-3.77.05h-1.5c-2.6,0-5.19,0-7.79,0-1.49,0-3-.08-4.46-.11-2.21-.06-4.41-.12-6.61-.2-1.3-.05-2.6-.12-3.89-.18s-2.64-.1-4-.18l-.89-.05q-4.41-.25-8.8-.56l-2.57-.18-6.57-.51-4.67-.37c-2.86-.25-5.73-.5-8.59-.78l-1.26-.11-9.39-1-2.51-.27-8-.91-5.71-.7-3.17-.39-6.14-.79-.44-.06-5.18-.7q-2.49-.33-5-.69l-8-1.15-.75-.11-1.17-.18c-2.22-.33-4.43-.67-6.65-1q-6.15-1-12.28-2l-6.53-1.12-7.33-1.31-2.72-.49h0c-5.8-.45-11.48-1.18-17.28-2.11-9.21-1.47-18.36-3.31-27.48-5.29l-3.75-.81h0l-3.48-.76c-4.08-.92-8.13-1.91-12.18-2.94l-1.49-.33q-8.85-2-17.55-4.51-9.11-2.64-18-6l-.34-.11c-3.65-1.19-7.3-2.39-10.93-3.63l-1.81-.61-3.47-1.19-5.87-2-1.31-.45-5.46-1.88-1.72-.58-3.75-1.24-2.63-.85-1-.32-3.26-1-1.45-.42c-1.25-.37-2.51-.73-3.77-1.07-1.83-.5-3.66-1-5.5-1.43a300.22,300.22,0,0,0-34.67-6.38,396.27,396.27,0,0,0-45.29-3c-13.35-.14-26.71.3-40,1.21q-15.95,1.1-31.83,3.21-10,1.33-19.91,3.12a387.43,387.43,0,0,0-59.81,15.57l-2.18.79c-1.69.61-3.39,1.22-5.07,1.86-1,.38-2,.79-3,1.18-1.42.56-2.85,1.11-4.26,1.69-1.05.43-2.09.88-3.13,1.32-1.35.57-2.71,1.14-4.05,1.73l-3.15,1.43c-1.32.59-2.64,1.19-3.94,1.81-1.06.49-2.1,1-3.15,1.51-1.29.62-2.58,1.25-3.87,1.9-1,.52-2.07,1-3.11,1.59-1.28.65-2.55,1.32-3.81,2l-3.07,1.66c-1.26.69-2.52,1.4-3.77,2.1l-3,1.72c-1.26.73-2.52,1.48-3.77,2.23l-2.91,1.75c-1.27.78-2.54,1.58-3.81,2.38-.92.59-1.85,1.16-2.77,1.76-1.32.86-2.63,1.73-3.95,2.61-.84.56-1.69,1.11-2.52,1.68-1.51,1-3,2.07-4.48,3.12l-1.9,1.33q-3.13,2.25-6.23,4.57l-1.65,1.28c-1.51,1.14-3,2.29-4.5,3.47-.81.63-1.6,1.28-2.4,1.93q-1.83,1.47-3.65,2.95l-2.59,2.19c-.84.71-1.69,1.4-2.52,2.12l-.49.44c-3.39,3.12-14.77,15-16.85,17.6-22.29,28.34-45.31,56.13-66.89,85-7.07,9.46-14,19.1-20.74,28.92,0,0-8.41,12.54-10.83,16.35-18.36,28.63-34.33,58.86-45.18,91A238.56,238.56,0,0,0,507.82,1387.65Z" transform="translate(-488.69 -720.9)"/><path d="M722.52,1768.67c6.92,6,18,7.34,26.68,8.69,16,2.47,32.17,2.59,48.31,3.4-.32-.71-.63-1.42-.9-2.15-3.13-8.32-.34-17.87,4.28-25,7.31-11.36,19.64-20.25,32.77-25.46a241.8,241.8,0,0,1-29.17-5.76c-8.64-2.17-17.41-4.21-26.29-5,8.47,6.92,16,13.74,16,13.74s-9.63,27.35-8.66,31.05-67.81,4.55-68.58-12.72C714.28,1756.93,716.51,1763.45,722.52,1768.67Z" transform="translate(-488.69 -720.9)" style="fill:#d1204f;opacity:0.30000000000000004;mix-blend-mode:multiply"/><path d="M816.15,1780.29l0,0c.31.31.62.59,1,.87l.72.6a.13.13,0,0,0,.06,0,19.57,19.57,0,0,0,1.75,1.28l.62.41c.41.27.82.52,1.25.76h0l1.4.75.52.26c.55.27,1.12.52,1.69.76l.3.12.87.36.11,0,.34.13.48.17c5.7,2.09,11.94,3.12,17.6,4,11.58,1.82,23.44,2.11,35.14,2.24,32.09.37,64.14-1,96.21-1.66,33-.7,65.87-.52,98.73,1.07,7.7-.11,15.41-.14,23.11-.15l60.07.81.74-1,52.39-.16,34.43-.1h1.5c30.13-.06,60.26-.08,90.38.13h2.35q13.38,0,26.76.11c24.35.12,48.7.28,73,.67,6.93.11,13.88.16,20.82.28,4.36.08,8.72.18,13.08.35l2.26.08c.23,0,.47,0,.7,0l3.62.14c-.75-.69-1.45-1.41-2.12-2.16-.12-.13-.23-.27-.34-.4a21.75,21.75,0,0,1-5.56-14.33,24.88,24.88,0,0,1,.23-3.6c1.2-8.43,8.68-15.3,15.09-20.08a105.69,105.69,0,0,1,10.29-6.78,82.09,82.09,0,0,1,15.21-6.94l.31-.11a112.54,112.54,0,0,1,3-35.47,117,117,0,0,1,41.19-63.76,125.29,125.29,0,0,1,52.09-24.49,118.56,118.56,0,0,1,16-2.19c2.77-.19,5.56-.29,8.34-.28-6.12-.31-121-4.29-135.65,122.59,0,0-37.54,13.35-41.5,36.12l-17.16-.1,0-.17H860s-42.42,3-28.61-24.64c-7.28,4.15-14.24,9.68-18.4,17.07a18.51,18.51,0,0,0-.84,1.66c-.12.28-.23.55-.33.82s-.19.54-.27.81a2.33,2.33,0,0,0-.07.25.31.31,0,0,0,0,.13c-.06.21-.11.43-.15.64a.59.59,0,0,0,0,.21,8.69,8.69,0,0,0-.12,1C810.8,1773.25,812.45,1776.7,816.15,1780.29Z" transform="translate(-488.69 -720.9)" style="fill:#d1204f;opacity:0.30000000000000004;mix-blend-mode:multiply"/><path d="M1487.44,1778.66c-.44-1.4,1.58,2.1.93,1.45a22.11,22.11,0,0,0,1.76,1.86c.54.51,1.09,1,1.66,1.47,4.13,3.42,12.13,6.16,18.7,7.79a87,87,0,0,0,19.47,2.32c2.28.06,4.57.07,6.91.06,25.18-.1,50.69,1.36,75.67-2.58a184.17,184.17,0,0,0,21.57-4.76c19.24-5.42,37.56-13.7,55.1-23.45,8.2-4.57,16.31-9.41,24.31-14.45,1.63-1,3.25-2.06,4.87-3.1l2-1.31q3.73-2.43,7.42-4.91c1-.66,2-1.32,3-2l3.72-2.55,4.37-3,3-2.12c2.08-1.49,4.16-3,6.22-4.49l2.1-1.55c2.37-1.75,4.74-3.5,7.08-5.28a333.25,333.25,0,0,0,88.41-102q6-10.68,11.2-21.7h0a365.86,365.86,0,0,0,24-67.73l.66-2.69c.21-.9.43-1.79.64-2.69s.41-1.8.62-2.7q1.83-8.09,3.33-16.26c.33-1.82.66-3.64,1-5.46q.69-4.1,1.31-8.2.4-2.74.78-5.49,1.1-8.1,1.9-16.25c.28-2.85.53-5.71.75-8.56.08-.92.15-1.85.21-2.77.12-1.62.23-3.25.33-4.88q.39-6.56.61-13.13c0-.88.06-1.75.08-2.63a485.21,485.21,0,0,0-1.29-50.17c-4.2-43.81-13.73-87.74-29.44-128.82a373.6,373.6,0,0,0-74.39-119.17,398.49,398.49,0,0,0-30.75-29.94c2.65,3,168.1,194.89,93.58,439.48,0,0-4.21,15.91-15.83,40.39-1.91,3.68-75.15,145.34-216.38,184.84,0,0-104.94,15-125.6-4.08a25.37,25.37,0,0,0-5.76,7.58C1486.68,1776,1486.84,1776.92,1487.44,1778.66Z" transform="translate(-488.69 -720.9)" style="fill:#d1204f;opacity:0.30000000000000004;mix-blend-mode:multiply"/><path d="M582.72,1169.87c-6.42,0-11.63,6.2-11.63,13.84s5.21,13.83,11.63,13.83,11.63-6.19,11.63-13.83S589.14,1169.87,582.72,1169.87Z" transform="translate(-488.69 -720.9)" style="fill:#fff"/><path d="M562.21,1180.26a40.91,40.91,0,0,0-1.91,12.45c0,20.11,14.25,36.4,31.83,36.4s31.83-16.29,31.83-36.4-14.25-36.4-31.83-36.4a29.06,29.06,0,0,0-18.6,6.87A57.55,57.55,0,0,0,562.21,1180.26Zm8.88,3.45c0-7.64,5.21-13.84,11.63-13.84s11.63,6.2,11.63,13.84-5.21,13.83-11.63,13.83S571.09,1191.35,571.09,1183.71Z" transform="translate(-488.69 -720.9)"/><path d="M890.69,1238.62a49,49,0,0,0-27-30,52.73,52.73,0,0,0-6.95-2.16c-1.17-.29-2.36-.5-3.55-.7s-1.18-.19-.2,0c-.59-.07-1.18-.12-1.77-.16a47.67,47.67,0,0,0-7.07,0c-.59,0-1.17.1-1.75.17,1.11-.15,1.1-.14,0,0s-2.26.46-3.38.75-2.2.64-3.28,1c-.38.13-3.67,1.52-1.62.61a35.49,35.49,0,0,0-5.9,3.44c1.72-1.21-1,.93-1.36,1.21a34.25,34.25,0,0,0-2.44,2.53c-.72.88-.77.91-.16.12-.36.49-.72,1-1.05,1.5a37.44,37.44,0,0,0-1.92,3.22c-2.88,5.31-4.2,11.73-10.31,14.65a5.6,5.6,0,0,1-6.53-.84c-11.16-10,1.92-29.67,10.5-36.77,9.93-8.24,22.61-11.68,35.41-10.48a61.67,61.67,0,0,1,35.12,15.3,42.15,42.15,0,0,1,14.47,35.36,4.71,4.71,0,0,1-9.21,1.25Z" transform="translate(-488.69 -720.9)"/><path d="M972.06,1195.08c5.07.4,9.3,2.48,13.9,4.59,5.2,2.38,10.91,4.4,15.9,7.16,9.36,5.17,18.88,10,29,13.47,20.11,6.82,41.59,5.7,59.9-5.56a50.16,50.16,0,0,0,23.4-33.37c2.62-13.23-.68-28.07-6.75-40.55-9.78-20.09-27.74-37.28-48.69-45.3a128.55,128.55,0,0,0-39.45-7.83c-13.42-.64-26.45-.35-39.45,3.27a1.12,1.12,0,0,1-1.09-1.86c9.14-8.61,21.75-12.31,34.42-13.45a116.25,116.25,0,0,1,18.17-.1c18.77,1.29,37.32,7,52.88,17.67,26.53,18.26,46.89,50.13,44.56,83.23a63.23,63.23,0,0,1-14.58,36.25c-10.28,12.46-26,19.92-41.52,23.1-17.22,3.53-34.3.85-50.45-5.33-1.51-.59-3-1.19-4.53-1.83-8.67-3.7-17.79-7.81-25.31-13.54-7.3-5.56-16.42-9.79-21.94-17.25A1.85,1.85,0,0,1,972.06,1195.08Z" transform="translate(-488.69 -720.9)"/><path d="M972.06,1195.08c5.07.4,9.3,2.48,13.9,4.59,5.2,2.38,10.91,4.4,15.9,7.16,9.36,5.17,18.88,10,29,13.47,20.11,6.82,41.59,5.7,59.9-5.56a50.16,50.16,0,0,0,23.4-33.37c2.62-13.23-.68-28.07-6.75-40.55-9.78-20.09-27.74-37.28-48.69-45.3a128.55,128.55,0,0,0-39.45-7.83c-13.42-.64-26.45-.35-39.45,3.27a1.12,1.12,0,0,1-1.09-1.86c9.14-8.61,21.75-12.31,34.42-13.45a116.25,116.25,0,0,1,18.17-.1c18.77,1.29,37.32,7,52.88,17.67,26.53,18.26,46.89,50.13,44.56,83.23a63.23,63.23,0,0,1-14.58,36.25c-10.28,12.46-26,19.92-41.52,23.1-17.22,3.53-34.3.85-50.45-5.33-1.51-.59-3-1.19-4.53-1.83-8.67-3.7-17.79-7.81-25.31-13.54-7.3-5.56-16.42-9.79-21.94-17.25A1.85,1.85,0,0,1,972.06,1195.08Z" transform="translate(-488.69 -720.9)"/><path d="M1011.25,1239.88a38.84,38.84,0,0,0,3.64,16.66,35.75,35.75,0,0,0,3,5.3,26.38,26.38,0,0,0,11.65,9.85c10.37,4.19,22.14,2.22,31.37-3.71,7-4.53,11.63-11.63,13.94-19.5a44.46,44.46,0,0,0,1.72-13.94,32.52,32.52,0,0,1-10.08,2.07,19.39,19.39,0,0,1-1.65,9.81,27.45,27.45,0,0,1-8.22,10.8,22.22,22.22,0,0,1-4.84,2.79c-6.53,2.77-14.23,2.43-19.89-2.43-7.61-6.54-7.86-16.16-5.44-25.24,1.56-5.85,5.53-13.43,11.52-15.09a8.45,8.45,0,0,0-4.74-1.73c-3.37-.23-7.1,1-10.1,2.63C1015.58,1222.12,1011.4,1231.75,1011.25,1239.88Z" transform="translate(-488.69 -720.9)" style="fill:#ffd710"/><path d="M966.75,1234.11c.08.69.19,1.36.33,2,1.26,6,4.7,11.13,10.6,15.06,8.16,5.42,18.22,6,27.32,3.08a49.38,49.38,0,0,1-1.78-8.93,22.2,22.2,0,0,1-10.34,1.16,22.49,22.49,0,0,1-6.5-1.86c-6.61-3-10.21-11.36-8.88-18.3,1.45-7.55,13.34-22.24,22.7-20.62-1.6-2.54-4.34-3.8-7.43-4.19a24.42,24.42,0,0,0-12.91,2.41c-8.75,4.36-12.13,13.77-13.13,22.91A30.26,30.26,0,0,0,966.75,1234.11Z" transform="translate(-488.69 -720.9)" style="fill:#ffd710"/><path d="M958.85,1222.46c2.12-14,10.69-24.63,24.39-28.55,8.84-2.53,27.51,3.36,23.28,15.64a2.43,2.43,0,0,1-.66,1,1.12,1.12,0,0,1-1.27.89c-.3,0-.59,0-.89,0l-.31,0c-8.06-.17-15.2,7.33-17.71,14.52a9.08,9.08,0,0,0,4.23,10.69c3.81,2.23,8.71.9,12.21-1.19a4.83,4.83,0,0,1,1.25-.54,33.21,33.21,0,0,1,1.16-5.26c3-9.6,10.65-17.84,20.35-20.57,7.22-2,17.67-.13,19.65,8.28a2.75,2.75,0,0,1,0,1.21,1.38,1.38,0,0,1-1,1.66c-11,3.52-15,23.41-6.56,30.92,4,3.53,10.28,1.86,14-1.16,4.3-3.53,5-7.92,5.92-12.55a40,40,0,0,1,1.43-5.84l.12-.27a3.91,3.91,0,0,1,4-3.14c3,0,6,0,9-.21,2.82-.24,6.18-1,8.92,0a1.93,1.93,0,0,1,1.33,1.69l0,0a16.79,16.79,0,0,1,1.72,3.31c3.11,7.81,1,17.83-2.25,25.12a41,41,0,0,1-16.43,18.5c-12.87,7.74-30.42,8.37-43.39.63a35.6,35.6,0,0,1-12.92-14.35,39.8,39.8,0,0,1-37.15-5.49C959.47,1248.7,956.75,1236.24,958.85,1222.46Zm70.68,49.23c10.37,4.19,22.14,2.22,31.37-3.71,11-7.1,16.09-20.56,15.66-33.35v-.09a6.37,6.37,0,0,1-.61.23,33,33,0,0,1-9.2,1.82l-.27,0v0c.93,7.62-4.25,16.34-9.87,20.59-7.18,5.43-17.59,6.5-24.73.36-7.61-6.54-7.86-16.16-5.44-25.24,1.56-5.85,5.53-13.43,11.52-15.09-4.07-3.21-10.3-1.49-14.84.9-7.54,4-11.72,13.6-11.87,21.73C1011,1252.08,1017.75,1266.91,1029.53,1271.69Zm-51.85-20.49c8.16,5.42,18.22,6,27.32,3.08a49.38,49.38,0,0,1-1.78-8.93,22.05,22.05,0,0,1-16.84-.7c-6.61-3-10.21-11.36-8.88-18.3,1.45-7.55,13.34-22.24,22.7-20.62-3.84-6.11-14.28-4.8-20.34-1.78-8.75,4.36-12.13,13.77-13.13,22.91C965.62,1237.08,969,1245.4,977.68,1251.2Z" transform="translate(-488.69 -720.9)" style="fill:#721800"/><path d="M967.08,1236.14c1.26,6,4.7,11.13,10.6,15.06,8.16,5.42,18.22,6,27.32,3.08a49.38,49.38,0,0,1-1.78-8.93,22.2,22.2,0,0,1-10.34,1.16l-1.08,4.39S976.38,1252.31,967.08,1236.14Z" transform="translate(-488.69 -720.9)" style="fill:#c67009"/><path d="M1017.88,1261.84a26.38,26.38,0,0,0,11.65,9.85c10.37,4.19,22.14,2.22,31.37-3.71,7-4.53,11.63-11.63,13.94-19.5a44.46,44.46,0,0,0,1.72-13.94,32.52,32.52,0,0,1-10.08,2.07,19.39,19.39,0,0,1-1.65,9.81,27.45,27.45,0,0,1-8.22,10.8,22.22,22.22,0,0,1-4.84,2.79c1.14,2.7,1.3,5.34-.89,7.09C1046,1271,1030.65,1270.15,1017.88,1261.84Z" transform="translate(-488.69 -720.9)" style="fill:#c67009"/><path d="M1056.9,1237.38a48,48,0,0,0,9.58-.75l.27,0c3.19-.51,6.43-1.18,9.2-1.82l.61-.14c4-.92,6.87-1.73,6.87-1.73a16.79,16.79,0,0,0-1.72-3.31l0,0a1.93,1.93,0,0,0-1.33-1.69c-2.74-1-6.1-.2-8.92,0-3,.25-6,.23-9,.21a3.91,3.91,0,0,0-4,3.14l-.12.27A40,40,0,0,0,1056.9,1237.38Z" transform="translate(-488.69 -720.9)"/><path d="M966.75,1234.11q.18-.79.33-1.71c3.87-23.24,25.69-30.85,25.69-30.85h0a24.42,24.42,0,0,0-12.91,2.41c-8.75,4.36-12.13,13.77-13.13,22.91A30.26,30.26,0,0,0,966.75,1234.11Z" transform="translate(-488.69 -720.9)" style="fill:#fff"/><path d="M1014.88,1256.48c-5.67-30.66,18.34-41,18.34-41-3.37-.23-7.1,1-10.1,2.63-7.54,4-11.72,13.6-11.87,21.73a38.84,38.84,0,0,0,3.64,16.66S1014.88,1256.5,1014.88,1256.48Z" transform="translate(-488.69 -720.9)" style="fill:#fff"/><path d="M951.06,1237.75c1.1-.13,2.67-.3,4.56-.44.94-.07,2-.15,3-.2s2.22-.13,3.4-.16,2.4-.1,3.64-.1l3.27,0c0-1.63,0-3.27,0-4.88,0-2,.07-4,.1-5.87s.1-3.74.16-5.49.13-3.39.2-4.91c.28-6.09.68-10.15.68-10.15s.4,4.06.68,10.15c.07,1.52.15,3.17.2,4.91s.13,3.59.16,5.49.1,3.87.1,5.87c0,1.62,0,3.25,0,4.89l1.87,0c1.24,0,2.46.07,3.64.11,2.36.08,4.56.21,6.45.36s3.45.31,4.55.44,1.73.24,1.73.24-.62.1-1.73.23-2.67.31-4.55.45-4.09.28-6.45.36c-1.18,0-2.4.1-3.64.11h-1.87c0,1.64,0,3.28,0,4.9,0,2-.07,4-.1,5.87-.08,3.8-.21,7.36-.36,10.4-.28,6.09-.68,10.15-.68,10.15s-.4-4.06-.68-10.15c-.15-3-.28-6.6-.36-10.4,0-1.91-.1-3.87-.1-5.87,0-1.61,0-3.25,0-4.88l-3.27,0c-1.24,0-2.46-.07-3.64-.1s-2.32-.1-3.4-.16-2.1-.13-3-.2c-1.89-.14-3.46-.31-4.56-.45s-1.73-.23-1.73-.23S950,1237.89,951.06,1237.75Z" transform="translate(-488.69 -720.9)" style="fill:#fff"/><path d="M1046.78,1261.14c.93-.08,1.94-.15,3-.2s2.19-.13,3.36-.16,2.36-.1,3.59-.1l1.9,0-2.74-2.78c-1.39-1.4-2.72-2.82-4-4.17s-2.54-2.68-3.72-3.94-2.28-2.47-3.29-3.58c-4.06-4.45-6.62-7.57-6.62-7.57s3.11,2.56,7.57,6.62c1.11,1,2.32,2.11,3.57,3.3s2.6,2.41,3.95,3.72,2.77,2.63,4.17,4l2.49,2.45c0-1,0-2,0-2.92,0-2,.07-3.92.1-5.8s.1-3.7.16-5.42.13-3.35.2-4.86c.27-6,.67-10,.67-10s.39,4,.67,10c.07,1.51.15,3.14.2,4.86s.13,3.54.15,5.42.1,3.82.11,5.8c0,.84,0,1.7,0,2.55.87-.86,1.76-1.66,2.6-2.45,1.71-1.59,3.33-3,4.76-4.25s2.63-2.2,3.49-2.88,1.38-1,1.38-1-.37.51-1,1.37-1.65,2.08-2.87,3.5-2.66,3.05-4.25,4.75c-.8.85-1.61,1.74-2.47,2.62l-.66.67h.94c1.23,0,2.43.07,3.6.11,2.33.08,4.5.2,6.37.35s3.41.31,4.5.44,1.71.24,1.71.24-.62.1-1.71.23-2.64.3-4.5.44-4,.27-6.37.36c-1.16,0-2.36.09-3.57.1l1.79,1.81c1.39,1.4,2.72,2.82,4,4.17,2.6,2.72,5,5.29,7,7.52,4.06,4.46,6.62,7.57,6.62,7.57s-3.12-2.56-7.57-6.62c-2.23-2-4.8-4.41-7.52-7-1.35-1.31-2.77-2.63-4.17-4l-2.08-2c0,1.17,0,2.34,0,3.49,0,2-.07,3.92-.1,5.8-.09,3.76-.21,7.27-.36,10.28-.28,6-.67,10-.67,10s-.4-4-.67-10c-.16-3-.28-6.52-.36-10.28,0-1.88-.1-3.82-.1-5.8,0-1.28,0-2.59,0-3.89l-1.36,1.33c-.87.86-1.76,1.66-2.61,2.46s-1.69,1.55-2.49,2.27-1.56,1.38-2.27,2c-1.41,1.23-2.63,2.2-3.49,2.88s-1.37,1-1.37,1,.36-.52,1-1.38,1.66-2.08,2.88-3.49c.61-.71,1.26-1.48,2-2.27s1.46-1.64,2.27-2.49,1.6-1.74,2.47-2.61c.22-.23.44-.46.67-.68h-1c-1.23,0-2.43-.08-3.59-.11s-2.3-.1-3.36-.15-2.08-.13-3-.21c-1.87-.13-3.42-.3-4.51-.43s-1.71-.23-1.71-.23.62-.1,1.71-.23S1044.91,1261.28,1046.78,1261.14Z" transform="translate(-488.69 -720.9)" style="fill:#fff"/><path d="M670.28,1282c-6.55,5.17-13.93,9.18-21.2,13.22-1.68.94-3.39,1.83-5.06,2.78a15.77,15.77,0,0,1-15-1.21c-2.54-1.59-5-3.37-7.51-5a118.11,118.11,0,0,1-14.19-10.49c-4.86-4.29-11.88-14.31-5.43-20.32,3.86-3.58,10.46-3.75,15.36-4.16a185.15,185.15,0,0,1,22.84-.18,175.91,175.91,0,0,1,23,2.38c5.12.9,10.52,2.16,13.83,6.45C681.38,1271.27,674.47,1278.7,670.28,1282Zm-59.43-14.55c.08-.34,0-.37,0,0Z" transform="translate(-488.69 -720.9)"/><path d="M602.68,1321a2.28,2.28,0,0,1,2.78-2.79c8.79,2.62,13.79,14.1,16.22,22,3.13,10.25,1.21,25-6,33.13-3.79,4.3-10.33-.28-9.12-5.31,1.12-4.66,3.35-8.87,4.26-13.64.78-4.07.36-8.64-.26-12.7C609.42,1334.15,604.3,1328.23,602.68,1321Z" transform="translate(-488.69 -720.9)"/><path d="M592.08,1299.59c7.78-3.3,16.09-4.53,24.28-6.42a103.85,103.85,0,0,0,11.35-3.59c1.38-.5,2.8-.81,4.17-1.34,1.74-.68,3.2-.09,4.33-.22a3.1,3.1,0,0,1,3,2.3c3.56,15.27-25.23,18-35,20.13-5.46,1.21-10.17,1.44-10.69,7-.41,4.42.26,9,.74,13.4a109.88,109.88,0,0,1,.48,13.91,3.26,3.26,0,0,1,.31,1.1c.83,8.25.07,16.56.67,24.85.33,4.49,1.07,9.85,4.34,13.12,4.1,4.1,14.46,3.74,20.2,4.21,5.43.44,11,.74,16.3,2a31.16,31.16,0,0,1,6.79,2.34c3,1.5,3.48,2.88,4.9,5.69a2.86,2.86,0,0,1-1.68,4.13c-3.14,1.09-4.39,1.55-7.81,1.07-3.09-.45-6.18-1-9.27-1.45-6.06-1-12.26-1.17-18.36-2-7.24-.95-14.91-2.39-19.81-8.31-4.12-5-5.25-11.27-5.55-17.54a88.55,88.55,0,0,1,3.34-28.56c-1.69-4.46-3.81-8.59-5.27-13.21a69.28,69.28,0,0,1-3.08-14.81C580.06,1309,584.59,1302.77,592.08,1299.59Z" transform="translate(-488.69 -720.9)"/><path d="M1089.62,1791.78c9.11-.1,18.22,0,27.34.07q46.35.54,92.72,1.08c59.58.62,119.4,2.45,179,.11,3.65-.14,7.29-.32,10.93-.61q1.67-.14,3.33-.33c.29,0,.66-.1,1-.18,1.12-1.13,2.16-2.36,3.18-3.56.68-.78,1.34-1.59,2-2.4.07-.09.29-.36.45-.58l.75-1c1.47-2,2.85-4,4.19-6.08,13.46-20.73,21.35-42.89,28.86-66.33,21.77-68,33.47-139.29,43.54-209.76,11.3-79.08,19-158.65,25-238.29,4.52-61,8.2-122.23,8.68-183.42.21-26.19.17-52.24,1.41-78.42,1.59-33.39,3-67.34-3.34-100.34-5.17-26.76-15.8-52.29-34-72.83-21.77-24.53-50.63-37.89-80.33-49.8l-2.4-1c-15,.14-30,0-44.92-.64-28.9-1.26-57.67-5-86.3-8.89-37.78-5.17-75.77-11.7-113.89-17.58,22.93,15,41.2,36.56,53.74,61.72,20.28,40.69,27,87.09,29.09,132,1.74,37.25-1.09,74.18-3.33,111.32-1.45,23.94-2.5,47.91-3.68,71.87-3.44,70.31-7.4,140.59-13.6,210.71-7,78.84-16.32,157.75-32.29,235.33-7.08,34.4-15.6,68.58-26.94,101.84-9.39,27.53-20.64,55.05-36.63,79.46q-1.67,2.57-3.43,5.13c-5.93,8.66-12.59,17.21-20.41,24A85.24,85.24,0,0,1,1089.62,1791.78Z" transform="translate(-488.69 -720.9)" style="fill:#363d3c"/><path d="M1429.52,777.63A183.37,183.37,0,0,1,1455.1,790l.15.09q4.35,2.55,8.53,5.34h0A164.34,164.34,0,0,1,1503.27,832l.51.69c7.17.31,14.36.55,21.55.8,10.61.36,21.22.73,31.82,1.29h0c15,.78,30,2,44.88,4.06,3.72.53,7.44,1.12,11.14,1.8h0a231.06,231.06,0,0,1,28.54,7c11.88,3.76,23.47,9.8,34.13,16.19a1.29,1.29,0,0,1-1.3,2.23c-14.58-7.26-30.36-12.13-46.44-15.39h0c-9-1.82-18.09-3.13-27.12-4.07-11.12-1.16-22.29-1.93-33.47-2.4q-12.6-.52-25.21-.61c-10.34-.1-20.68,0-31,.19a146.93,146.93,0,0,1,9.72,19c8.7,20.52,13,42.88,14.9,65.21,2.79,33.42,0,67-1.21,100.39-.32,8.94-.39,17.87-.37,26.81,39.31,8.27,78.41,17.84,118.08,24.33a318.35,318.35,0,0,0,39.91,4.39h0q3.57.15,7.14.16a103.1,103.1,0,0,0,17.35-1.12h0a41.85,41.85,0,0,0,14.19-4.83,6.18,6.18,0,0,1,5.92-.43c14-6.92,24.79-18.11,32.72-31.26a115.18,115.18,0,0,0,7.69-15.25,141.43,141.43,0,0,0,7.36-23.42c7.72-34.49,4.78-71.8-4.65-105.63a189,189,0,0,0-14.1-36.51,130.89,130.89,0,0,0-15.42-23.46,104.5,104.5,0,0,0-9.42-10,94.48,94.48,0,0,0-11-8.84,231.07,231.07,0,0,0-46.46-24.4,283.67,283.67,0,0,0-33.26-10.69,388.35,388.35,0,0,0-61.78-10.35q-13-1.18-26-1.76-10.61-.51-21.23-.68c-26.46-.47-52.95.32-79.41,1.17q-13.44.43-26.87.84h0l-2.54.07Z" transform="translate(-488.69 -720.9)" style="fill:#ff9052"/><path d="M781.51,909a73.07,73.07,0,0,0,3.75,13.18,56.06,56.06,0,0,0,19.61,25.78c17.49,12.41,38.8,13.35,59.47,14.67h0c2.11.14,4.22.28,6.31.44q4.68.35,9.34.74c25.5,2.08,51,4.84,76.33,8.09q8.43,1.1,16.85,2.25c27.08,3.7,54.09,7.93,81,12.49q4.53.75,9,1.53l7.73,1.34c43.52,7.55,86.89,15.89,130.3,24.08h0q8.18,1.56,16.36,3.08l8.21,1.54c1.44-25.85,2.3-51.68,1-77.67-1.57-31.4-5.68-63.7-15.58-93.88a227.68,227.68,0,0,0-8.63-22.38h0a.3.3,0,0,1,0-.08h-.09a8,8,0,0,1-2.76,0l-10.84-2q-13.25-2.49-26.45-5.05c-27.25-5.26-54.45-10.66-81.76-15.56h0q-20.28-3.66-40.63-6.86l-2.73-.42h0q-36.81-5.65-73.87-9.05h0q-18.72-1.68-37.49-2.7-33.45-1.83-67-1.38c-9.57.14-19.17.22-28.75-.13-2.62-.09-5.23-.22-7.85-.39a111.25,111.25,0,0,0-9.05,10.22c-2.28,2.89-4.42,5.91-6.43,9a155.91,155.91,0,0,0-14.63,29.61c-1.88,5-3.53,10-5,15.09C786,848.66,785,852.83,784,857,780.09,873.85,778.31,891.86,781.51,909Z" transform="translate(-488.69 -720.9)" style="fill:#ff9052"/><path d="M838.81,767c15.71-1.88,31.77-2.13,47.66-1.85,7.87.14,15.69.41,23.4.68q8.89.32,17.78.81c21.14,1.19,42.23,3.11,63.26,5.57q4.79.56,9.57,1.15,19.9,2.48,39.7,5.57h0c29.72,4.6,59.29,10,88.81,15.78q18.6,3.6,37.16,7.3l1,.21q7.61,1.5,15.2,3l11.83,2.36a146.41,146.41,0,0,0-27.73-34.95,142,142,0,0,0-40.67-26.23c-16.24-2.29-32.49-4.35-48.76-6q-14.85-1.54-29.7-2.64c-31.66-2.29-63.34-2.8-95-.37q-14.34,1.08-28.67,3-10.41,1.39-20.8,3.3c-6.38,1.17-12.74,2.53-19,4.17a177.54,177.54,0,0,0-22.76,7.46,136.16,136.16,0,0,0-14.79,7C843.75,763.86,841.25,765.41,838.81,767Z" transform="translate(-488.69 -720.9)" style="fill:#ff9052"/><path d="M790.58,797.42a128.88,128.88,0,0,1,39.61-42.82c16.37-11.1,35.51-17.85,54.63-22.42,56.14-13.44,115.66-13.07,172.82-8.15,63.29,5.45,125.81,17.33,188.53,27.05,30.52,4.73,61.15,8.89,91.95,11.4,24.73,2,49.59,2.07,74.39,1.64,100.6-1.76,210-14.83,302.58,33.79,16.81,8.83,33.27,19.37,45.52,34.08,10.8,13,18.7,27.85,25.05,43.42,13.62,33.46,19,71.14,16.08,107.1-3.41,41.69-19.92,87.68-61.19,104.17a6.64,6.64,0,0,1-2.71,3.08c-9.91,6.23-22,7.94-33.5,8.47-16.49.75-33.09-1.33-49.39-3.65-40.52-5.75-80.51-15.22-120.53-23.71,0,9.36.08,18.72-.1,28.08-1.23,65.36-5.27,130.71-10.55,195.85-6.52,80.5-15.2,160.91-27.61,240.72-10.46,67.33-22.51,136-46.06,200.14-7.88,21.46-17.2,43.15-31.73,61-2.61,3.21-5.31,6.72-9.21,8.33-2,.81-4.38.89-6.41,1.12-7.47.86-15,1-22.55,1.18-61.92,1.64-124,.15-185.91-.93q-43.43-.76-86.82-1.59c-9.19-.16-18.4-.32-27.56-1-2.62-.19-5.24-.38-7.87-.53-1.49-.09-3.42.07-4.66-.82a5.59,5.59,0,0,0,1.25.69h-.09c-6.58.85-6.5-9.47,0-10.31l.51,0c7.77-4.32,14.11-10.9,20.21-17.43a178.06,178.06,0,0,0,21.08-26.66c15.56-24.2,26.49-50.59,35.72-77.64,23.92-70.15,36.54-144.19,46.5-217.43,10.45-76.78,16.86-154.1,21.81-231.41,3.58-55.9,5.73-111.89,9.26-167.79q.66-10.45,1.32-20.89c-124.56-23.18-249-48.91-375.77-56.64-21.18-1.29-42-6.89-58.47-20.74-13.18-11.07-21-27.48-24.11-44.16-3.44-18.47-1.82-37.46,2-55.74A202.89,202.89,0,0,1,790.58,797.42Zm112.33-53.68c-19.59,3.59-39.08,9-56.58,18.69-2.58,1.43-5.09,3-7.52,4.6,23.49-2.8,47.77-2,71.06-1.16,30.3,1.08,60.52,3.78,90.6,7.53,55.67,6.92,110.69,17.76,165.69,28.65,9.36,1.85,18.72,3.74,28.08,5.6-15.94-27.77-39.24-48.72-68.4-61.19C1051.67,736,977.13,730.16,902.91,743.74Zm633,184.25c2.79,33.43,0,67-1.21,100.4-.32,8.93-.39,17.87-.37,26.81,39.31,8.27,78.41,17.84,118.08,24.33,15.55,2.54,31.28,4.5,47.06,4.54,10.52,0,22.41-.59,31.55-5.94a6.16,6.16,0,0,1,5.92-.43c26.73-13.16,41.48-41.83,47.77-69.93,7.72-34.49,4.78-71.8-4.65-105.64-8.48-30.47-23.66-60.73-50-78.78-41.72-28.61-91.72-40.91-141.5-45.45-51.89-4.72-104.11-1.78-156.07-.35l-3,.08c28.82,11.32,55.1,30.07,73.75,54.37l.51.69c32.75,1.39,65.75,1.56,98.26,6.15a245,245,0,0,1,39.69,8.78c11.88,3.75,23.47,9.79,34.13,16.19a1.29,1.29,0,0,1-1.3,2.23c-22.75-11.34-48.42-16.84-73.57-19.46-29.75-3.1-59.78-3.38-89.68-2.82C1526.72,869,1533.47,898.55,1535.93,928Zm-133.49,864.18h0ZM1219,1338.7c-7,78.84-16.32,157.75-32.29,235.32-7.08,34.41-15.6,68.58-26.94,101.85-9.39,27.52-20.64,55.05-36.63,79.46-6.77,10.35-14.48,21-23.84,29.16a85.35,85.35,0,0,1-9.67,7.29c9.11-.11,18.22,0,27.34.07q46.35.54,92.72,1.08c59.57.62,119.4,2.44,179,.11,3.64-.14,7.29-.32,10.93-.61q1.67-.14,3.33-.33c.29,0,.66-.11,1-.18,1.11-1.13,2.16-2.37,3.18-3.56.68-.79,1.34-1.59,2-2.4l.45-.58.75-1c1.47-2,2.85-4,4.19-6.09,13.46-20.72,21.35-42.88,28.86-66.32,21.77-68,33.47-139.29,43.54-209.77,11.3-79.07,19-158.64,25-238.28,4.53-61,8.2-122.23,8.69-183.42.21-26.19.17-52.24,1.41-78.43,1.59-33.38,3-67.34-3.34-100.34-5.17-26.76-15.8-52.29-34-72.82-22.35-25.2-52.18-38.6-82.72-50.76-15,.14-30,0-44.92-.64-28.9-1.27-57.67-5-86.31-8.89-37.77-5.17-75.76-11.7-113.88-17.58,22.93,15,41.2,36.55,53.74,61.72,20.28,40.68,27,87.09,29.09,132,1.73,37.24-1.09,74.18-3.33,111.31-1.45,24-2.5,47.92-3.68,71.88C1229.14,1198.29,1225.19,1268.57,1219,1338.7ZM781.51,909c2.89,15.41,10.34,29.73,23.36,39,19.28,13.68,43.21,13.41,65.79,15.11,64.59,4.86,128.78,14.17,192.59,25.1,54.33,9.31,108.43,19.93,162.61,30,1.44-25.85,2.3-51.68,1-77.67-2-39.36-7.92-80.12-24.25-116.36a8.29,8.29,0,0,1-2.85,0c-53.25-9.77-106.18-21.15-159.69-29.48-59.93-9.33-120.44-14.44-181.13-13.55-12.19.17-24.43.25-36.6-.52a115.06,115.06,0,0,0-15.48,19.25C795.73,817.14,788.62,837,784,857,780.09,873.85,778.31,891.85,781.51,909Z" transform="translate(-488.69 -720.9)"/><path d="M1068.63,1803.17c1.28-.15,1.09.39,0,0Z" transform="translate(-488.69 -720.9)"/><path d="M1541.37,775.47c15.72,17.47,41.28,43.4,71.81,65.17h0a231.06,231.06,0,0,1,28.54,7c11.88,3.76,23.47,9.8,34.13,16.19a1.29,1.29,0,0,1-1.3,2.23c-14.58-7.26-30.36-12.13-46.44-15.39A235.32,235.32,0,0,0,1663,869c29.42,12.23,41.34,42,56.42,79.76,11.84,29.59,25.39,63.48,50.24,97.7a115.18,115.18,0,0,0,7.69-15.25c-21.13-30.82-33.29-61.24-44-88-15.74-39.38-29.34-73.39-64.59-88-42.31-17.58-81.58-53.28-106.18-79Q1552,775.64,1541.37,775.47Z" transform="translate(-488.69 -720.9)" style="fill:#fff"/><path d="M1650.39,788.26c4.58,4.82,9.82,10,15.76,15.34,20.68,18.64,53.3,42.62,99.83,62a130.89,130.89,0,0,0-15.42-23.46A331.26,331.26,0,0,1,1683.65,799,283.67,283.67,0,0,0,1650.39,788.26Z" transform="translate(-488.69 -720.9)" style="fill:#fff"/><path d="M1567.52,844.18q-12.6-.52-25.21-.61c5.42,3.12,8.88,5,11.19,6.1.59,2.14,1.42,5.63,2.24,9.05,5.26,22.07,16.21,68,44.06,117.87,24,43.07,55,79,92.54,107.33h0l24.49-1c-109.61-73-136.94-187.61-146.51-227.72-1-4.24-1.81-7.59-2.5-10C1567.74,844.92,1567.63,844.57,1567.52,844.18Z" transform="translate(-488.69 -720.9)" style="fill:#fff"/><path d="M1435.09,777.48c6.18,3.89,12.94,8.14,20,12.56l.15.09,8.53,5.34h0l13.27,8.28c21.31,13.27,36.86,22.84,48.27,29.73,10.61.36,21.22.73,31.82,1.29-13.38-7.28-54.77-32.82-95.19-58.14Q1448.52,777.08,1435.09,777.48Z" transform="translate(-488.69 -720.9)" style="fill:#fff"/><path d="M1162.47,817.06c18,11.69,32.93,20.78,41.53,24.74a36.06,36.06,0,0,1,7.29,4.83,227.68,227.68,0,0,0-8.63-22.38h0l-.13-.07a8,8,0,0,1-2.76,0Q1181.09,820.69,1162.47,817.06Z" transform="translate(-488.69 -720.9)" style="fill:#fff"/><path d="M1047.38,737.79c23.24,16.54,53.45,37.81,81.62,57q18.6,3.6,37.16,7.3l1,.21c-27.32-17.9-61.33-41.52-90.13-61.83Q1062.23,738.89,1047.38,737.79Z" transform="translate(-488.69 -720.9)" style="fill:#fff"/><path d="M1037.34,794.22l23,10.9c3.94,2.66,37.6,26.07,72.18,70.51a391.21,391.21,0,0,1,68.73,137.93h0q8.18,1.56,16.36,3.08A402.25,402.25,0,0,0,1144,865.92c-25-32-49.19-53.3-63.29-64.42h0q-20.28-3.66-40.63-6.86Z" transform="translate(-488.69 -720.9)" style="fill:#fff"/><path d="M923.71,740.45l67.2,31.8q4.79.56,9.57,1.15,19.9,2.48,39.7,5.57l-87.8-41.55Q938,738.5,923.71,740.45Z" transform="translate(-488.69 -720.9)" style="fill:#fff"/><path d="M926,782.47c36.85,17.57,69.95,38.18,84.31,59.93,18,27.33,23.89,56.47,30.06,87.33,3.58,17.92,7.39,36.91,13.88,56.88q4.53.75,9,1.53l7.73,1.34c-7.71-21.57-11.86-42.31-15.94-62.7-6.47-32.33-12.58-62.87-32.26-92.65-11.57-17.52-33.37-34.07-59.32-49h0Q944.73,783.49,926,782.47Z" transform="translate(-488.69 -720.9)" style="fill:#fff"/><path d="M861.12,755.38c8.25,3,16.76,6.33,25.35,9.81,7.87.14,15.69.41,23.4.68q8.89.32,17.78.81c-14.47-6.78-29.32-13.07-43.77-18.76A177.54,177.54,0,0,0,861.12,755.38Z" transform="translate(-488.69 -720.9)" style="fill:#fff"/><path d="M813.29,790.79a255.43,255.43,0,0,1,24.09,9.45c49.5,22.46,81.59,56.55,95.38,101.34C941.14,928.8,949,952,956.33,971.87q8.43,1.1,16.85,2.25c-8-21.27-16.73-46.53-26.09-77C928,835,878.85,802.1,841,785.43q-5.44-2.4-10.82-4.47c-2.62-.09-5.23-.22-7.85-.39A111.25,111.25,0,0,0,813.29,790.79Z" transform="translate(-488.69 -720.9)" style="fill:#fff"/><path d="M787.24,844.52a216.77,216.77,0,0,1,22,19.72c26.72,27.48,45.14,60.4,55.12,98.36h0c2.11.14,4.22.28,6.31.44q4.68.35,9.34.74a249.74,249.74,0,0,0-13.74-41,232.22,232.22,0,0,0-74-93.36Z" transform="translate(-488.69 -720.9)" style="fill:#fff"/><path d="M1534.72,1028.39c-.32,8.94-.39,17.87-.37,26.81,39.31,8.27,78.41,17.84,118.08,24.33a318.35,318.35,0,0,0,39.91,4.39h0q3.57.15,7.14.16a103.1,103.1,0,0,0,17.35-1.12h0a41.85,41.85,0,0,0,14.19-4.83,6.18,6.18,0,0,1,5.92-.43c14-6.92,24.79-18.11,32.72-31.26a115.18,115.18,0,0,0,7.69-15.25,141.43,141.43,0,0,0,7.36-23.42c7.72-34.49,4.78-71.8-4.65-105.63a189,189,0,0,0-14.1-36.51,130.89,130.89,0,0,0-15.42-23.46,104.5,104.5,0,0,0-9.42-10c24.84,33.44,47.75,125.94-16.05,177.09,0,0-27.53,12.34-141.26,1.66,0,0-19.13,2.12-26.68-61.28-4.2-35.26-19.34-66-36.12-86.87,8.7,20.52,13,42.88,14.9,65.21C1538.72,961.42,1535.91,995,1534.72,1028.39Z" transform="translate(-488.69 -720.9)" style="fill:#d1204f;opacity:0.30000000000000004;mix-blend-mode:multiply"/><path d="M1182.41,805.29l11.83,2.36a146.41,146.41,0,0,0-27.73-34.95A351.51,351.51,0,0,1,1182.41,805.29Z" transform="translate(-488.69 -720.9)" style="fill:#d1204f;opacity:0.30000000000000004;mix-blend-mode:multiply"/><path d="M785.26,922.15a56.06,56.06,0,0,0,19.61,25.78c17.49,12.41,38.8,13.35,59.47,14.67h0c2.11.14,4.22.28,6.31.44q4.68.35,9.34.74c25.5,2.08,51,4.84,76.33,8.09q8.43,1.1,16.85,2.25c27.08,3.7,54.09,7.93,81,12.49q4.53.75,9,1.53l7.73,1.34c43.52,7.55,86.89,15.89,130.3,24.08h0q8.18,1.56,16.36,3.08l8.21,1.54c1.44-25.85,2.3-51.68,1-77.67-1.57-31.4-5.68-63.7-15.58-93.88a227.68,227.68,0,0,0-8.63-22.38h0a.3.3,0,0,1,0-.08h-.09a8,8,0,0,1-2.76,0l-10.84-2c8.68,24.77,14,52,10,77.26-11.45,72.66-62.44,67.3-109.35,54.71s-161.31-21.34-202.41-28.93C860.11,920.14,811.64,924.84,785.26,922.15Z" transform="translate(-488.69 -720.9)" style="fill:#d1204f;opacity:0.30000000000000004;mix-blend-mode:multiply"/><path d="M1089.62,1791.78c9.11-.1,18.22,0,27.34.07q46.35.54,92.72,1.08c59.58.62,119.4,2.45,179,.11,3.65-.14,7.29-.32,10.93-.61q1.67-.14,3.33-.33c.29,0,.66-.1,1-.18,1.12-1.13,2.16-2.36,3.18-3.56.68-.78,1.34-1.59,2-2.4.07-.09.29-.36.45-.58l.75-1c1.47-2,2.85-4,4.19-6.08,13.46-20.73,21.35-42.89,28.86-66.33,21.77-68,33.47-139.29,43.54-209.76,11.3-79.08,19-158.65,25-238.29,4.52-61,8.2-122.23,8.68-183.42.21-26.19.17-52.24,1.41-78.42,1.59-33.39,3-67.34-3.34-100.34-5.17-26.76-15.8-52.29-34-72.83-21.77-24.53-50.63-37.89-80.33-49.8,33.12,19.41,96,74.66,78.11,208.88-24,180-31.37,632.84-135.92,726.75-57.32,51.48-137.33,38.22-226.77,45.72-5.93,8.66-12.59,17.21-20.41,24A85.24,85.24,0,0,1,1089.62,1791.78Z" transform="translate(-488.69 -720.9)" style="fill:#d1204f;opacity:0.30000000000000004;mix-blend-mode:multiply"/></g></g></svg>